<svg width="280" height="186" viewBox="0 0 280 186" fill="none" xmlns="http://www.w3.org/2000/svg">
<path d="M278.564 154.12L254.605 148.126L251.669 159.951L276.742 181.767L279.368 171.19L278.564 154.12Z" fill="black"/>
<path d="M202.97 103.767L200.15 115.122L225.223 136.938L231.676 110.948L202.97 103.767Z" fill="black"/>
<path d="M261.17 118.326L232.462 111.146L225.91 137.537L230.056 141.144L254.015 147.139L261.17 118.326Z" fill="black"/>
<path d="M231.409 142.323L250.981 159.353L253.818 147.929L231.409 142.323Z" fill="black"/>
<path d="M217.689 44.5708L210.532 73.3823L239.238 80.5658L246.395 51.7543L217.689 44.5708Z" fill="black"/>
<path d="M25.2202 59.3001L21.5433 58.3774L0 80.083C0.895338 80.417 3.66041 82.3932 7.7216 85.5191L18.0594 88.1024L25.2202 59.3001Z" fill="black"/>
<path d="M158.094 28.8204L163.634 6.51151L134.19 2.29883L129.386 21.6388L158.094 28.8204Z" fill="black"/>
<path d="M133.381 2.18519L125.048 0.993164L121.957 19.7795L128.6 21.4421L133.381 2.18519Z" fill="black"/>
<path d="M128.405 22.2314L121.825 20.5854L116.99 49.9783L121.249 51.043L128.405 22.2314Z" fill="black"/>
<path d="M143.982 89.0103L136.827 117.822L159.284 123.441L167.182 118.37L172.688 96.1919L143.982 89.0103Z" fill="black"/>
<path d="M240.011 80.753L268.717 87.9346L274.372 65.1607L274.067 58.671L247.165 51.9414L240.011 80.753Z" fill="black"/>
<path d="M247.362 51.1518L274.027 57.8223L272.569 26.8555L254.517 22.3384L247.362 51.1518Z" fill="black"/>
<path d="M272.528 26.0069L272.343 22.0655L255.193 19.6113L254.714 21.5488L272.528 26.0069Z" fill="black"/>
<path d="M275.525 89.6381L274.507 67.9897L269.504 88.1324L275.525 89.6381Z" fill="black"/>
<path d="M254.386 19.4969L235.981 16.8638L253.925 21.3532L254.386 19.4969Z" fill="black"/>
<path d="M187.587 36.1979L193.884 10.8406L164.441 6.62793L158.881 29.0162L187.587 36.1979Z" fill="black"/>
<path d="M217.082 43.577L224.136 15.1678L194.691 10.9551L188.374 36.3954L217.082 43.577Z" fill="black"/>
<path d="M246.575 50.9545L253.73 22.1429L228.146 15.7418L224.943 15.2842L217.869 43.7728L246.575 50.9545Z" fill="black"/>
<path d="M188.194 37.1919L181.037 66.0034L209.743 73.1869L216.9 44.3754L188.194 37.1919Z" fill="black"/>
<path d="M54.9116 65.8895L62.0651 37.078L46.5318 33.1919L27.8695 52.0004L26.2038 58.7078L54.9116 65.8895Z" fill="black"/>
<path d="M64.7677 132.077L68.9429 135.553L69.511 133.261L64.7677 132.077Z" fill="black"/>
<path d="M76.8575 103.66L48.1497 96.4785L43.6602 114.562C50.2272 119.981 56.9358 125.55 63.3319 130.876L69.7058 132.47L76.8575 103.66Z" fill="black"/>
<path d="M64.5783 26.9627L59.46 20.1611L47.1992 32.5187L62.2619 36.2885L64.5783 26.9627Z" fill="black"/>
<path d="M9.33392 86.7686C11.5658 88.5031 14.114 90.5199 16.914 92.7563L17.87 88.9035L9.33392 86.7686Z" fill="black"/>
<path d="M26.7554 53.1245L22.207 57.7081L25.4169 58.5108L26.7554 53.1245Z" fill="black"/>
<path d="M130.909 141.655L158.342 124.044L136.632 118.614L130.909 141.655Z" fill="black"/>
<path d="M18.6569 89.1006L17.6108 93.3133C24.9059 99.1571 33.7783 106.414 42.9652 113.989L47.3628 96.2749L18.6569 89.1006Z" fill="black"/>
<path d="M73.7578 39.1635L65.2071 27.7969L63.0487 36.4843L73.7578 39.1635Z" fill="black"/>
<path d="M121.053 51.8328L116.857 50.7847L112.022 80.1756L113.897 80.6462L121.053 51.8328Z" fill="black"/>
<path d="M107.137 111.235L99.9818 140.046L124.04 146.066L129.914 142.294L135.843 118.417L107.137 111.235Z" fill="black"/>
<path d="M77.8393 103.066L106.547 110.248L113.702 81.4361L111.89 80.9821L110.695 88.2505L103.679 78.9284L84.9946 74.2544L77.8393 103.066Z" fill="black"/>
<path d="M55.6985 66.0855L84.4045 73.2672L88.1311 58.2635L74.5355 40.1968L62.852 37.2739L55.6985 66.0855Z" fill="black"/>
<path d="M70.2923 133.459L69.6287 136.133C80.2606 145.008 89.4842 152.74 94.8654 157.285L99.0002 140.641L70.2923 133.459Z" fill="black"/>
<path d="M102.901 77.8947L88.758 59.0991L85.1913 73.4643L102.901 77.8947Z" fill="black"/>
<path d="M95.5566 157.866L99.9249 161.545L123.099 146.669L99.787 140.838L95.5566 157.866Z" fill="black"/>
<path d="M173.477 96.3896L168.177 117.732L188.3 104.813L199.462 114.525L202.183 103.569L173.477 96.3896Z" fill="black"/>
<path d="M121.85 52.0376L114.693 80.8491L143.399 88.0326L150.556 59.2211L121.85 52.0376Z" fill="black"/>
<path d="M26.0096 59.5029L18.8524 88.3145L47.5584 95.498L54.7156 66.6864L26.0096 59.5029Z" fill="black"/>
<path d="M254.802 147.335L278.524 153.271L277.066 122.302L261.957 118.523L254.802 147.335Z" fill="black"/>
<path d="M114.499 81.6416L107.341 110.453L136.047 117.637L143.205 88.8251L114.499 81.6416Z" fill="black"/>
<path d="M77.6498 103.866L70.4926 132.678L99.1985 139.861L106.356 111.05L77.6498 103.866Z" fill="black"/>
<path d="M280 184.603L279.502 174.019L277.428 182.365L280 184.603Z" fill="black"/>
<path d="M262.152 117.733L277.025 121.453L275.566 90.4866L269.307 88.9219L262.152 117.733Z" fill="black"/>
<path d="M210.338 74.1748L203.18 102.986L231.886 110.17L239.044 81.3583L210.338 74.1748Z" fill="black"/>
<path d="M158.697 29.8125L151.54 58.624L180.246 65.8075L187.403 36.996L158.697 29.8125Z" fill="black"/>
<path d="M129.202 22.4326L122.045 51.2441L150.751 58.4277L157.908 29.6161L129.202 22.4326Z" fill="black"/>
<path d="M55.5064 66.8838L48.3492 95.6953L77.0551 102.879L84.2123 74.0673L55.5064 66.8838Z" fill="black"/>
<path d="M239.833 81.5551L232.675 110.367L261.381 117.55L268.539 88.7387L239.833 81.5551Z" fill="black"/>
<path d="M151.346 59.417L144.188 88.2285L172.894 95.412L180.052 66.6005L151.346 59.417Z" fill="black"/>
<path d="M180.84 66.7968L173.683 95.6084L202.389 102.792L209.546 73.9804L180.84 66.7968Z" fill="black"/>
<path d="M278.564 154.12L278.524 153.269L254.807 147.335L261.963 118.523L277.058 122.302L277.018 121.453L262.152 117.726L269.307 88.9144L275.558 90.4792L275.518 89.6304L269.497 88.1247L274.499 67.9821L274.365 65.1515L268.71 87.9272L240.004 80.7456L247.157 51.934L274.067 58.6784L274.027 57.8296L247.369 51.159L254.524 22.3456L272.576 26.8628L272.536 26.0121L254.721 21.5559L255.201 19.6184L254.394 19.504L253.932 21.3603L235.989 16.8708L228.155 15.7415L253.73 22.1427L246.575 50.9542L217.869 43.7725L224.943 15.2839L224.136 15.1677L217.082 43.5843L188.374 36.4027L194.695 10.955L193.888 10.8406L187.591 36.1978L158.881 29.0162L164.441 6.6279L163.634 6.51165L158.094 28.8206L129.386 21.6389L134.19 2.29898L133.382 2.18457L128.601 21.4415L121.959 19.7808L121.827 20.5871L128.407 22.2331L121.249 51.0428L116.99 49.9781L116.857 50.7844L121.053 51.8344L113.897 80.6459L112.022 80.1754L111.89 80.9818L113.702 81.4357L106.547 110.247L77.8393 103.066L84.9946 74.254L103.679 78.928L102.901 77.8947L85.1913 73.4661L88.758 59.1009L88.1311 58.265L84.4045 73.2668L55.7059 66.087L62.852 37.2736L74.5355 40.1965L73.7579 39.1631L63.0487 36.4839L65.2053 27.7965L64.5784 26.9624L62.2619 36.2864L47.1992 32.5184L46.5319 33.1919L62.0652 37.078L54.9116 65.8896L26.2038 58.7079L27.8695 52.0005L26.7554 53.1242L25.417 58.5105L22.207 57.7078L21.5396 58.3794L25.2166 59.3021L18.0667 88.1136L7.72162 85.5266C8.23639 85.9233 8.76955 86.3348 9.32661 86.7684L17.87 88.9034L16.914 92.7562L17.6108 93.3098L18.6569 89.0971L47.3629 96.2769L42.9652 113.991L43.6602 114.565L48.1497 96.4818L76.8575 103.663L69.7022 132.471L63.3282 130.877L64.7677 132.076L69.5055 133.261L68.9429 135.553L69.6342 136.132L70.2978 133.458L99.0057 140.64L94.8654 157.284L95.5567 157.865L99.7852 140.838L123.097 146.669L124.038 146.065L99.9819 140.053L107.137 111.242L135.845 118.416L129.914 142.293L130.909 141.655L136.632 118.614L158.342 124.044L159.284 123.441L136.827 117.822L143.982 89.0104L172.688 96.1921L167.182 118.37L168.177 117.732L173.477 96.3895L202.183 103.569L199.462 114.524L200.149 115.124L202.968 103.767L231.674 110.948L225.221 136.939L225.908 137.536L232.461 111.15L261.168 118.329L254.015 147.139L230.056 141.146L231.409 142.323L253.818 147.929L250.982 159.353L251.669 159.951L254.611 148.126L278.564 154.12ZM246.378 51.744L239.223 80.5555L210.517 73.3757L217.676 44.5623L246.378 51.744ZM216.885 44.363L209.73 73.1746L181.024 65.9966L188.179 37.185L216.885 44.363ZM187.39 36.9821L180.237 65.7991L151.529 58.6193L158.684 29.8059L187.39 36.9821ZM129.192 22.4231L157.898 29.6048L150.742 58.4219L122.036 51.2402L129.192 22.4231ZM121.84 52.0355L150.547 59.2172L143.401 88.0177L114.684 80.8434L121.84 52.0355ZM18.8536 88.3092L26.0071 59.4977L54.7149 66.6793L47.5596 95.4909L18.8536 88.3092ZM48.3464 95.6902L55.5018 66.8786L84.2022 74.0566L77.0524 102.87L48.3464 95.6902ZM99.195 139.85L70.4891 132.672L77.6444 103.861L106.35 111.041L99.195 139.85ZM136.047 117.626L107.334 110.445L114.489 81.6331L143.195 88.813L136.047 117.626ZM144.179 88.2206L151.334 59.4165L180.04 66.5981L172.885 95.3986L144.179 88.2206ZM173.672 95.6016L180.827 66.7882L209.533 73.9699L202.38 102.78L173.672 95.6016ZM203.166 102.983L210.322 74.1655L239.03 81.3471L231.872 110.16L203.166 102.983ZM232.659 110.363L239.815 81.5519L268.521 88.7336L261.365 117.541L232.659 110.363Z" fill="white"/>
<path d="M276.742 181.767L277.428 182.365L279.502 174.019L279.368 171.19L276.742 181.767Z" fill="white"/>
<path d="M82.5127 155.576C78.0102 150.387 79.5068 134.417 79.5068 134.417L58.4249 136.088C58.4249 136.088 58.7412 152.275 55.8511 154.891" fill="#FFCC00"/>
<path d="M79.3836 144.27C77.0708 147.071 71.662 148.545 67.2497 148.414C63.3889 148.302 59.5832 142.558 58.3974 140.6C58.4654 137.993 58.4287 136.088 58.4287 136.088L79.5105 134.417C79.2417 137.694 79.1993 140.987 79.3836 144.27Z" fill="black"/>
<path d="M65.8652 76.9465C56.9928 76.6475 43.9616 89.6528 47.3297 111.03C47.3297 111.03 44.0113 108.943 43.4689 114.015C42.9266 119.088 44.1822 121.863 47.122 124.69C50.0617 127.517 50.7419 125.292 50.7419 125.292C50.7419 125.292 54.463 140.41 68.6781 140.827C82.8932 141.244 85.0406 123.284 85.0406 123.284C85.0406 123.284 87.0353 125.067 88.3811 123.033C89.7268 121 92.9552 113.154 91.1811 109.854C89.4069 106.555 87.9049 107.825 87.2835 108.245C87.2982 108.24 89.9291 77.7584 65.8652 76.9465Z" fill="#FFCC00"/>
<path d="M87.2982 108.24L87.1512 109.936C85.9083 94.8932 78.5103 79.9284 67.5346 79.0223C56.5589 78.1163 48.9348 91.8929 48.9348 91.8929C52.5676 82.1888 60.098 76.7619 65.8653 76.9465C89.9291 77.7584 87.2982 108.24 87.2982 108.24Z" fill="#FFF5CC"/>
<path d="M87.7137 111.838C87.1769 112.444 86.8584 113.213 86.8092 114.023C86.7724 114.733 86.9158 115.462 87.7137 115.807C89.1532 116.429 86.3128 118.081 86.2834 119.086C86.254 120.092 86.7834 120.684 88.4509 118.632C90.1184 116.58 90.6571 113.914 90.3023 112.379C89.9475 110.843 89.5522 109.402 88.5024 110.834C88.188 111.268 87.9251 111.591 87.7137 111.838Z" fill="#EF3C24"/>
<path d="M44.8827 118.704C44.2962 117.355 44.1804 114.792 45.0316 113.611C45.8828 112.43 46.5226 113.746 46.9731 114.624C47.4235 115.503 48.9035 116.957 47.6165 118.239C46.3296 119.522 47.8004 119.428 48.5928 120.52C49.3852 121.612 49.512 123.369 47.293 121.551C45.0739 119.734 45.1419 119.3 44.8827 118.704Z" fill="#EF3C24"/>
<path d="M237.594 155.576C233.091 150.387 234.59 134.417 234.59 134.417L213.51 136.088C213.51 136.088 213.824 152.275 210.945 154.891" fill="#FFCC00"/>
<path d="M234.466 144.27C232.154 147.071 226.745 148.545 222.333 148.414C218.472 148.302 214.666 142.558 213.478 140.6C213.548 137.993 213.51 136.088 213.51 136.088L234.59 134.417C234.323 137.694 234.281 140.987 234.466 144.27Z" fill="black"/>
<path d="M220.948 76.9465C212.081 76.6475 199.045 89.6528 202.413 111.03C202.413 111.03 199.092 108.943 198.552 114.015C198.011 119.088 199.265 121.863 202.205 124.69C205.145 127.517 205.827 125.286 205.827 125.286C205.827 125.286 209.55 140.404 223.763 140.821C237.976 141.238 240.125 123.279 240.125 123.279C240.125 123.279 242.12 125.061 243.466 123.028C244.812 120.994 248.04 113.148 246.266 109.849C244.492 106.55 242.99 107.819 242.37 108.24C242.381 108.24 245.012 77.7584 220.948 76.9465Z" fill="#FFCC00"/>
<path d="M242.379 108.24L242.234 109.936C240.989 94.8932 233.593 79.9284 222.617 79.0223C211.642 78.1163 204.018 91.8929 204.018 91.8929C207.65 82.1888 215.181 76.7619 220.948 76.9465C245.012 77.7584 242.379 108.24 242.379 108.24Z" fill="#FFF5CC"/>
<path d="M242.795 111.838C242.259 112.445 241.941 113.214 241.89 114.023C241.855 114.733 241.997 115.462 242.797 115.807C244.234 116.429 241.394 118.081 241.364 119.086C241.335 120.092 241.865 120.684 243.534 118.632C245.203 116.58 245.74 113.914 245.385 112.379C245.03 110.843 244.633 109.402 243.585 110.834C243.269 111.268 243.008 111.591 242.795 111.838Z" fill="#EF3C24"/>
<path d="M199.964 118.704C199.379 117.355 199.262 114.792 200.113 113.611C200.964 112.43 201.606 113.746 202.056 114.624C202.506 115.503 203.983 116.957 202.698 118.239C201.413 119.522 202.881 119.428 203.674 120.52C204.466 121.612 204.593 123.369 202.376 121.551C200.159 119.734 200.223 119.3 199.964 118.704Z" fill="#EF3C24"/>
<path d="M177.766 87.464L188.549 77.8503C188.549 77.8503 192.198 65.419 183.158 67.3528C174.118 69.2866 176.078 49.3303 177.766 48.7915C179.454 48.2527 179.053 38.1593 171.743 36.4598C164.433 34.7603 163.187 25.2352 163.187 25.2352C163.187 25.2352 151.932 17.6273 143.331 19.2825C134.731 20.9377 128.324 27.5307 128.324 27.5307L116.081 30.9868" fill="white"/>
<path d="M112.083 43.9003C112.083 43.9003 111.461 37.1098 108.115 39.612C108.115 39.612 118.429 24.3131 124.029 30.4817" fill="white"/>
<path d="M108.384 82.851L98.5424 90.804C98.5424 90.804 90.0725 82.0151 98.5424 74.3648C107.012 66.7144 104.472 57.6377 102.912 55.4197C101.353 53.2017 112.081 43.8999 112.081 43.8999" fill="white"/>
<path d="M168.772 156.218C160.986 147.231 163.575 119.638 163.575 119.638L127.131 122.524C127.131 122.524 127.682 150.509 122.696 155.033" fill="#FFCC00"/>
<path d="M163.365 136.671C159.367 141.513 150.02 144.062 142.381 143.837C135.702 143.641 129.127 133.71 127.076 130.326C127.195 125.816 127.131 122.524 127.131 122.524L163.577 119.636C163.115 125.303 163.044 130.995 163.365 136.671Z" fill="black"/>
<path d="M139.994 20.2792C124.665 19.7626 102.122 42.2375 107.948 79.205C107.948 79.205 102.212 75.5958 101.282 84.3717C100.351 93.1477 102.515 97.9397 107.597 102.824C112.678 107.708 113.859 103.854 113.859 103.854C113.859 103.854 120.293 129.99 144.868 130.713C169.443 131.436 173.17 100.381 173.17 100.381C173.17 100.381 176.617 103.461 178.944 99.9455C181.272 96.4303 186.85 82.866 183.785 77.1624C180.72 71.4587 178.121 73.6417 177.045 74.3816C177.045 74.3816 181.597 21.6816 139.994 20.2792Z" fill="#FFCC00"/>
<path d="M177.045 74.3818L176.793 77.3157C174.644 51.2979 161.858 25.4369 142.881 23.8666C123.904 22.2963 110.724 46.1146 110.724 46.1146C117.004 29.3377 130.028 19.9436 139.995 20.2813C181.597 21.6818 177.045 74.3818 177.045 74.3818Z" fill="white"/>
<path d="M177.764 80.5997C176.838 81.6493 176.288 82.9795 176.201 84.3788C176.141 85.6077 176.385 86.8662 177.766 87.4622C180.253 88.5361 175.343 91.3944 175.291 93.1308C175.24 94.8672 176.155 95.8986 179.04 92.3466C181.925 88.7945 182.848 84.1887 182.243 81.5371C181.638 78.8855 180.945 76.3926 179.13 78.8652C178.586 79.607 178.132 80.1717 177.764 80.5997Z" fill="#EF3C24"/>
<path d="M103.718 92.4723C102.705 90.1399 102.502 85.7095 103.973 83.6668C105.444 81.6241 106.547 83.8993 107.332 85.4179C108.117 86.9365 110.665 89.4498 108.444 91.6659C106.224 93.882 108.775 93.7215 110.132 95.611C111.489 97.5005 111.713 100.536 107.886 97.3935C104.058 94.2511 104.164 93.5019 103.718 92.4723Z" fill="#EF3C24"/>
<path d="M110.724 90.8042C105.76 100.898 104.716 109.367 106.972 114.087C109.228 118.808 113.114 121.682 113.114 121.682L115.158 117.782C115.158 117.782 113.522 128.866 121.499 136.666L123.546 133.176C123.546 133.176 124.16 150.418 132.749 150.625V146.934C132.749 146.934 136.231 157.192 145.736 153.293C155.241 149.394 154.928 140.362 163.569 145.698C172.21 151.035 170.166 128.456 170.166 128.456H173.642C173.642 128.456 185.026 114.499 177.187 105.671L180.799 103.003C180.799 103.003 179.367 92.7399 173.642 93.3562L154.835 119.636L131.519 115.525L110.724 90.8042Z" fill="white"/>
<path d="M130.797 104.291C136.047 99.4582 162.79 96.3213 163.183 107.974C163.577 119.627 138.307 128.111 138.307 128.111L116.98 115.296L130.797 104.291Z" fill="white"/>
</svg>
