<svg width="170" height="170" viewBox="0 0 170 170" fill="none" xmlns="http://www.w3.org/2000/svg">
<path d="M61.0724 60.911C63.6819 63.4143 63.9242 67.7408 63.9242 71.0218C63.9242 74.3027 63.6267 78.6717 61.0724 81.1282C58.3609 83.7632 54.0302 83.7632 51.1274 83.7632C48.2247 83.7632 43.9024 83.7632 41.1824 81.1282C38.3052 78.3615 38.3052 73.8182 38.3052 71.0218C38.3052 67.6218 38.4922 63.4653 41.1824 60.911C43.9492 58.276 48.0887 58.276 51.1274 58.276C54.1662 58.276 58.3312 58.276 61.0724 60.911ZM44.7014 77.9832C46.1549 79.866 48.5264 80.053 51.1274 80.053C53.7284 80.053 56.0744 79.866 57.5789 77.9832C58.3864 76.9633 59.1132 75.055 59.1132 71.0472C59.1132 66.7463 58.3609 65.025 57.5789 64.056C56.1297 62.2285 53.6562 62.016 51.1274 62.016C48.5179 62.016 46.1804 62.2285 44.7014 64.056C43.7324 65.2673 43.1714 67.2308 43.1714 71.0472C43.1714 75.106 43.8684 76.9633 44.7014 77.9832Z" fill="white"/>
<path d="M65.6965 58.7605H89.811V62.9H79.7555L79.7853 84.0055H75.6968L75.6713 62.9H65.6965V58.7605Z" fill="white"/>
<path d="M35.1604 71.0472C35.1604 80.9667 31.9049 83.8695 22.7673 83.8695C18.4111 83.8695 14.7816 83.7377 11.4751 83.521V58.65C14.8071 58.4587 18.3303 58.2972 22.7673 58.2972C31.9049 58.225 35.1604 61.1277 35.1604 71.0472ZM30.4258 70.975C30.4258 64.226 28.5728 62.3177 22.7376 62.3177H15.9631V79.577C17.9818 79.6067 20.2386 79.6577 22.7121 79.6577C28.5728 79.6237 30.4258 77.7155 30.4258 70.975Z" fill="white"/>
<path d="M60.2394 111.669V92.8753L73.9499 110.836C73.9499 110.836 74.7021 111.83 77.0439 111.686C79.2199 111.55 79.8404 109.667 79.8106 108.541V86.479H75.6499L75.8369 105.604L62.5556 87.7795C62.5556 87.7795 61.7779 86.4323 59.6529 86.462C57.2899 86.462 55.8619 88.162 55.8279 89.7133V111.677L60.2394 111.669Z" fill="white"/>
<path d="M81.9611 99.1143V108.413C81.9611 108.413 81.6934 111.813 86.1304 111.72C90.5674 111.626 104.405 111.72 104.405 111.72V107.419H86.7466V101.235H103.951V97.0445L86.7466 97.07V90.6185H104.41V86.5045H85.3484C85.3484 86.5045 82.0164 86.7213 81.9909 89.947C81.9654 93.1728 81.9611 99.1143 81.9611 99.1143Z" fill="white"/>
<path d="M106.802 86.479H112.34L119.489 95.6463L126.777 86.479H132.205L122.34 99.2758L132.018 111.669L126.399 111.72L119.489 102.744L112.582 111.72L106.802 111.669L116.535 99.1143L106.802 86.479Z" fill="white"/>
<path d="M134.385 86.479H158.525V90.6185H148.444L148.47 111.72H144.385L144.36 90.6185H134.385V86.479Z" fill="white"/>
</svg>
