<svg width="163" height="103" viewBox="0 0 163 103" fill="none" xmlns="http://www.w3.org/2000/svg">
<g clip-path="url(#clip0)">
<path d="M115.667 100.935C71.1252 110.409 -105.203 84.6993 90.1547 75.9355Z" fill="black"/>
<path d="M67.7721 41.5896C67.7721 41.5896 70.7817 45.7715 68.9634 47.5804C67.1451 49.3892 57.8055 61.7546 58.6206 72.8669C59.4357 83.9793 75.1693 101.824 105.692 101.667C136.215 101.51 159.186 83.1983 162.339 59.8765C165.492 36.5548 156.675 33.4238 152.742 32.3281C152.742 32.3281 151.33 46.0332 130.4 44.067C109.47 42.1008 108.963 44.7124 108.963 44.7124C108.963 44.7124 109.74 42.3394 108.575 41.7875" fill="#FFCC00"/>
<path d="M90.0606 50.9501C104.203 50.9501 115.668 39.5446 115.668 25.4751C115.668 11.4056 104.203 0 90.0606 0C75.918 0 64.4531 11.4056 64.4531 25.4751C64.4531 39.5446 75.918 50.9501 90.0606 50.9501Z" fill="#FFCC00"/>
<path d="M115.667 25.475C115.667 31.2403 113.702 36.8353 110.093 41.3458C106.483 45.8562 101.443 49.0155 95.7949 50.3073C95.5305 49.1507 95.9912 47.6835 95.9912 47.6835C95.9912 47.6835 94.1975 46.9933 83.3626 46.417C81.1289 46.2819 78.8896 46.5657 76.7614 47.2536C75.8082 46.6763 74.8944 46.0372 74.0257 45.3403C73.625 43.9125 74.0898 45.3051 78.6451 44.4223C83.2822 43.5274 77.0122 40.951 74.74 41.6113C72.4678 42.2717 70.8785 39.595 71.057 39.1787C71.2356 38.7624 71.2669 37.7603 70.599 36.8572C69.9175 34.5195 67.5744 33.2191 67.0878 30.8813C66.777 29.3775 66.0165 24.4661 64.6425 22.363C65.1689 18.0531 66.7999 13.9501 69.3791 10.4479C69.5727 12.5727 68.4659 15.8162 67.6371 17.3038C66.8084 18.7913 65.8652 22.6925 67.415 24.675C68.9647 26.6574 74.8626 31.8034 75.1393 34.2022C75.416 36.6009 76.1698 39.2044 77.9622 40.5076C79.7546 41.8107 89.5358 43.2846 95.5987 38.5712C101.662 33.8578 110.258 28.286 110.786 21.9914C111.313 15.6969 111.106 10.9008 108.141 9.32103C105.177 7.7413 106.379 6.14665 108.571 7.87147C113.134 12.6065 115.677 18.9154 115.667 25.475Z" fill="#BF9900"/>
<path d="M95.7949 50.3074C89.2926 51.7907 82.4652 50.6953 76.7613 47.2537C78.8896 46.5657 81.1289 46.2819 83.3625 46.417C94.1974 46.9933 95.9912 47.6835 95.9912 47.6835C95.9912 47.6835 95.5304 49.1493 95.7949 50.3074Z" fill="#BF9900"/>
<path d="M129.419 43.9778C116.586 43.5588 105.951 48.3848 100.279 50.9517C97.1267 52.3809 96.069 51.5076 95.795 50.3062C100.943 49.1307 105.599 46.3985 109.124 42.4849C109.372 43.3161 109.021 44.5107 108.966 44.6911C109.078 44.4361 110.602 42.2842 129.419 43.9778Z" fill="black"/>
<path d="M76.7614 47.2522C70.0606 49.438 65.8352 55.2919 61.5811 59.2568C64.2541 53.3257 67.8975 48.6448 68.9634 47.5844C70.7803 45.7769 67.7734 41.5936 67.7734 41.5936C68.2723 41.4702 69.0356 41.2288 69.6108 40.8193C70.8898 42.5026 72.3726 44.0224 74.0258 45.3443C74.8946 46.0393 75.8084 46.6766 76.7614 47.2522V47.2522Z" fill="black"/>
<path d="M52.9054 34.9995C52.807 34.9941 52.7087 35.0109 52.6178 35.0487C52.5269 35.0865 52.4458 35.1444 52.3806 35.2179C51.3774 36.3447 49.7758 39.4214 54.308 39.3075C58.9042 39.1869 65.9525 39.8038 67.1111 41.3714C67.1873 41.4686 67.2908 41.5411 67.4084 41.58C67.526 41.6188 67.6526 41.6222 67.7721 41.5897C68.9007 41.3076 71.3924 40.4249 69.9871 38.3353C68.3473 35.9067 55.0672 35.1121 52.9054 34.9995Z" fill="#771E12"/>
<path d="M47.464 25.5648C47.3505 25.553 47.2357 25.5654 47.1274 25.6012C47.019 25.6369 46.9196 25.6952 46.8357 25.7722C46.7517 25.8492 46.6852 25.943 46.6406 26.0475C46.5959 26.152 46.5741 26.2648 46.5767 26.3784C46.6121 27.5432 47.1096 29.3209 48.3486 31.1148C49.9448 33.42 52.7704 35.7591 57.4197 36.8602C66.8247 39.0881 71.2669 39.1993 70.5949 36.8602C69.9229 34.5211 67.5744 33.2221 67.0892 30.8803C66.6039 28.5384 65.0364 17.959 61.7528 22.526C58.9818 26.3783 50.1601 25.8305 47.464 25.5648Z" fill="#EF3C24"/>
<path d="M62.3911 28.4423C62.7238 27.9056 62.6756 27.2755 62.2834 27.0349C61.8913 26.7943 61.3037 27.0344 60.971 27.5711C60.6383 28.1079 60.6865 28.738 61.0786 28.9785C61.4708 29.2191 62.0584 28.979 62.3911 28.4423Z" fill="black"/>
<path d="M63.2058 23.4751C62.0976 25.1023 56.0812 31.9271 51.6199 29.4578C51.6199 29.4578 52.9611 33.119 55.1243 33.3508C57.2875 33.5827 55.6491 36.0533 53.2269 34.136C50.8048 32.2186 47.6453 30.7121 46.8588 28.0082V27.996C46.7033 27.4691 46.6117 26.9255 46.5862 26.377C46.5838 26.2635 46.6058 26.1508 46.6505 26.0464C46.6952 25.942 46.7617 25.8482 46.8456 25.7713C46.9295 25.6944 47.0289 25.6361 47.1371 25.6002C47.2454 25.5644 47.36 25.5518 47.4735 25.5634C50.1696 25.8346 58.9899 26.377 61.761 22.5273C61.8659 22.3796 61.9793 22.2379 62.1004 22.1029C62.7683 21.8764 64.318 21.8479 63.2058 23.4751Z" fill="#F58A7B"/>
<path d="M78.6478 44.4208C74.0925 45.3035 73.6277 43.9109 74.0284 45.3388C72.3744 44.0175 70.8906 42.4981 69.6108 40.8152C70.34 40.2945 70.7721 39.5067 69.9883 38.3432C69.9717 38.3166 69.9525 38.2916 69.9311 38.2686C70.5676 37.9974 70.7884 37.5269 70.599 36.8584C71.2669 37.7615 71.2301 38.7636 71.057 39.1799C70.8839 39.5961 72.4759 42.2647 74.7372 41.6125C76.9985 40.9603 83.2821 43.5272 78.6478 44.4208Z" fill="black"/>
<path d="M144.464 45.2578L141.558 56.7363C140.922 57.2573 140.237 57.7168 139.513 58.1086L139.068 56.4814C134.715 59.7968 130.652 58.9832 109.518 58.2862C88.384 57.5892 81.4325 77.6769 81.4325 77.6769C64.055 66.4669 63.6202 83.9687 63.6202 83.9687C59.7723 80.7144 58.8972 74.8009 59.0267 69.8935V69.884C59.5515 67.1978 60.4838 64.555 61.581 62.1237C65.8351 58.1574 70.0605 52.3036 76.7613 50.1177C82.4652 53.5593 89.2926 54.6547 95.7949 53.1714C96.0675 54.3715 97.1266 55.2461 100.279 53.8169C105.951 51.2486 116.585 46.424 129.419 46.843H129.449L130.396 46.9311C131.317 47.0179 132.198 47.0748 133.046 47.1006C137.984 47.266 141.687 46.4877 144.464 45.2578Z" fill="#BF9900"/>
<path d="M59.0268 67.0143V66.9985" stroke="black" stroke-miterlimit="10"/>
<path d="M48.301 28.953C47.4422 29.3191 46.5658 25.917 47.4327 26.241C48.2996 26.5651 48.211 27.014 48.0911 27.3719C47.9711 27.7299 48.7194 28.774 48.301 28.953Z" fill="white"/>
<path d="M78.1694 13.3321C76.8663 14.8237 67.9356 18.0658 70.6644 12.0995C73.3933 6.1331 81.6888 0.166718 93.291 3.41026C93.291 3.41026 85.658 4.77846 84.8102 8.35286C84.8102 8.35286 92.157 11.2343 87.3999 13.9124C87.3999 13.9124 89.6163 16.8956 85.3417 15.56C81.0672 14.2243 80.3053 19.0313 80.3053 19.0313C80.3053 19.0313 79.5406 17.3201 80.3189 16.261C80.3189 16.261 78.3043 16.1458 77.8654 16.6041C77.8654 16.6041 77.4047 14.5145 78.1244 13.6548L78.1694 13.3321Z" fill="#FFEB99"/>
</g>
<defs>
<clipPath id="clip0">
<rect width="163" height="103" fill="white"/>
</clipPath>
</defs>
</svg>
