<svg width="111" height="37" viewBox="0 0 111 37" fill="none" xmlns="http://www.w3.org/2000/svg">
<g clip-path="url(#clip0)">
<path d="M87.7181 8.53753V19.2836C87.7181 20.4543 87.8989 21.4624 88.2604 22.308C88.6295 23.1535 89.1386 23.8484 89.7878 24.3942C90.4446 24.9311 91.2249 25.3293 92.1287 25.5902C93.0325 25.8423 94.0267 25.969 95.1097 25.969C96.2425 25.969 97.2818 25.8348 98.2263 25.5664C98.7731 25.4068 99.2762 25.1995 99.7371 24.9475C99.8908 25.1518 100.073 25.2607 100.307 25.2413L100.376 25.2353L100.417 25.1787C100.543 25.0012 100.642 24.6806 100.766 24.2436C101.418 23.6859 101.932 22.9924 102.304 22.1633C102.333 22.0977 102.36 22.0291 102.387 21.962C102.406 21.9933 102.424 22.0216 102.446 22.0559C102.706 22.4556 102.919 22.8463 103.242 23.4413C103.485 23.8872 103.788 24.442 104.211 25.1846L104.235 25.2264L104.279 25.2473C104.362 25.2845 104.437 25.3009 104.505 25.3009C104.764 25.3009 104.922 25.0713 105.006 24.9475L105.036 24.9043L105.042 24.8744C105.286 23.6933 105.048 22.548 104.82 21.44C104.741 21.0642 104.661 20.675 104.603 20.2977C104.441 19.3001 103.902 17.7283 103.762 17.3271C103.833 17.3316 103.871 17.1496 103.965 17.0736C104.678 16.4935 103.556 15.5361 102.887 14.9724C102.916 15.0469 102.943 15.117 102.884 14.9694C102.827 14.8173 102.855 14.8889 102.884 14.9634V8.53753H99.2491V10.9161C98.2805 10.4255 97.1824 10.0497 96.0587 9.83494L95.8388 9.79318L95.884 10.0109C95.8855 10.0169 96.0105 10.6283 96.1611 11.2502C96.3253 11.8392 96.4398 12.2225 96.5558 12.6162C96.6356 12.8876 96.7185 13.165 96.8194 13.5184C96.9986 12.8294 97.6479 12.3179 98.4221 12.3179C99.3365 12.3179 100.076 13.0278 100.076 13.9031C100.076 14.4892 99.7432 15.0007 99.2476 15.2751V17.7775C98.9629 17.8938 98.7354 18.0191 98.4553 18.2114C98.4342 18.2248 98.4176 18.2398 98.3995 18.2547C98.2218 17.5553 98.0516 16.8633 97.9461 16.2877C97.91 16.0878 97.809 15.7225 97.6916 15.3243C97.5484 15.2572 97.4174 15.1707 97.3014 15.0678C97.4325 15.5003 97.5545 15.9238 97.6177 16.1893L96.729 17.2272C96.3148 17.6611 96.1837 18.1533 96.369 18.5783C96.5739 19.048 97.1342 19.3269 97.809 19.2896C97.8889 19.658 98.157 19.9801 98.5863 20.2351C98.5923 20.2604 98.5984 20.2858 98.6044 20.3111C98.6842 20.6586 98.743 20.9434 98.7882 21.182C98.6089 21.5504 98.3845 21.865 98.1133 22.1275C97.7608 22.4765 97.333 22.7374 96.8314 22.9074C96.3389 23.07 95.7966 23.152 95.2046 23.152C94.6217 23.152 94.0914 23.0745 93.6154 22.9209C93.1394 22.7583 92.7327 22.5108 92.3953 22.1767C92.0579 21.8352 91.8003 21.4042 91.6195 20.8838C91.4388 20.3559 91.3484 19.7295 91.3484 19.0048V8.53753H87.7181ZM103.557 16.75C103.495 16.5815 103.414 16.3637 103.324 16.1207C103.497 16.3265 103.837 16.5472 103.557 16.75ZM102.884 15.803C102.935 15.9357 102.983 16.0685 103.031 16.1937C102.982 16.1564 102.934 16.1207 102.884 16.0864V15.803ZM102.884 19.1002V18.2666C103.119 18.1026 103.358 17.852 103.533 17.5821C103.724 18.1413 104.164 19.4686 104.306 20.341C104.365 20.7257 104.446 21.1179 104.524 21.4982C104.746 22.5674 104.975 23.674 104.753 24.785C104.633 24.9609 104.56 25.0251 104.446 24.9908C104.038 24.2735 103.744 23.7336 103.506 23.2982C103.179 22.6987 102.964 22.302 102.7 21.8964C102.635 21.792 102.575 21.6965 102.516 21.6085C102.76 20.8719 102.884 20.0367 102.884 19.1002ZM100.359 24.5583C100.308 24.7164 100.26 24.8491 100.212 24.9401C100.135 24.9251 100.066 24.8744 99.9993 24.7954C100.123 24.7193 100.243 24.6403 100.359 24.5583ZM98.0109 18.6782C97.9762 18.6916 97.9431 18.705 97.9085 18.7185C97.7744 18.7736 97.6479 18.8258 97.5078 18.8258C97.4129 18.8258 97.321 18.802 97.2276 18.7513C97.1116 18.6886 97.0258 18.5962 97.0001 18.5037C96.955 18.3456 97.0318 18.1607 97.0875 18.025C97.202 17.7506 97.4038 17.512 97.5876 17.3152C97.6494 17.2496 97.7141 17.1601 97.7714 17.0825C97.7804 17.0706 97.7895 17.0572 97.7985 17.0452C97.9055 17.518 98.032 18.0265 98.163 18.535C98.1224 18.5842 98.0757 18.6335 98.0109 18.6782ZM99.0533 20.4618C99.0337 20.5318 99.0171 20.6049 98.9945 20.6735C98.9765 20.5915 98.9569 20.502 98.9373 20.4111C98.978 20.4289 99.0156 20.4454 99.0533 20.4618Z" fill="black"/>
<path d="M102.887 14.9702C102.885 14.9675 102.885 14.9648 102.884 14.9634V14.9689C102.885 14.9689 102.885 14.9689 102.887 14.9702Z" fill="black"/>
<path d="M46.749 24.858C47.8576 25.2965 49.1802 25.5172 50.7166 25.5172C51.6445 25.5172 52.5197 25.4352 53.3407 25.2726C54.1707 25.1101 54.9344 24.8938 55.6318 24.6254C56.3292 24.3495 56.9589 24.0319 57.5162 23.674C58.0751 23.3086 58.5511 22.9253 58.9457 22.5272V16.2101H53.6781C53.6239 15.7747 53.5546 15.2632 53.4762 14.7725L54.9283 12.725C55.0428 12.9129 55.1422 13.1068 55.2251 13.3066L58.5767 12.306C58.3221 11.623 57.9772 11.0086 57.5418 10.4643C57.2044 10.0273 56.8007 9.64256 56.3292 9.30852C56.3353 9.2951 56.3413 9.28317 56.3473 9.26975L56.3503 9.26229L56.3488 9.25483C56.2208 8.65236 54.7611 8.20796 54.1797 8.20647H54.1677L54.1601 8.21691C54.1481 8.23331 54.1405 8.24822 54.13 8.26314C53.9929 8.22287 53.8528 8.1841 53.7097 8.14831C52.8632 7.93655 51.8946 7.83067 50.8025 7.83067C50.1066 7.83067 49.4559 7.8769 48.8428 7.96637V7.95146L48.8277 7.94549C48.7373 7.90672 48.6153 7.88733 48.4632 7.88733C47.7642 7.88733 46.6511 8.287 46.3603 8.57332L46.3528 8.58078V8.59122C46.3513 8.61806 46.3528 8.64192 46.3528 8.66727C45.4731 9.05649 44.7215 9.56949 44.1008 10.2107C43.3703 10.9668 42.8235 11.8854 42.462 12.9666C42.1004 14.0478 41.9197 15.2602 41.9197 16.6008C41.9197 17.8938 42.0884 19.0853 42.4243 20.1739C42.7692 21.2641 43.2995 22.2065 44.0135 23.0044C44.7275 23.7933 45.6388 24.4107 46.749 24.858ZM53.651 18.8691C53.6676 19.0152 53.6917 19.1808 53.7173 19.3642C53.785 19.8444 53.8619 20.3887 53.8423 20.7168C53.8137 21.182 53.7097 21.3476 53.6299 21.3476C53.4898 21.3476 53.1614 21.0866 52.7005 20.3529C52.5348 20.0889 52.4188 19.8205 52.3073 19.561C52.2049 19.3224 52.104 19.0898 51.9714 18.8706H53.651V18.8691ZM50.7618 11.7289C50.7618 11.0265 51.3553 10.4568 52.0859 10.4568C52.6267 10.4568 53.0921 10.7685 53.297 11.2159C53.4416 11.2889 53.5802 11.3665 53.7082 11.453C53.9673 11.6185 54.1933 11.8064 54.3921 12.0152C54.1074 12.6206 53.8122 13.0457 53.2623 13.6437C53.2608 13.6377 53.2593 13.6317 53.2578 13.6258C53.2111 13.4304 53.0033 13.0307 52.8873 12.737C52.7668 12.8249 52.6297 12.895 52.4821 12.9398L52.4926 12.9428C52.6297 13.1038 52.9144 13.4736 52.9656 13.6929C53.1298 14.3908 53.2744 15.4168 53.3738 16.2086H51.3809V18.2174C51.28 18.1533 51.1701 18.1205 51.0541 18.1205C50.7859 18.1205 50.5269 18.2964 50.3325 18.4515L50.3145 18.4679C50.0313 18.7796 49.724 19.1405 49.4272 19.488C49.1787 19.7802 48.9422 20.0561 48.7283 20.2962C48.1544 20.9569 47.8471 21.0284 47.7416 21.0284C47.7356 21.0284 47.7296 21.0284 47.7236 21.0284C47.8335 20.4752 47.9164 19.8981 47.9977 19.3388C48.0956 18.6588 48.189 18.0161 48.3246 17.4166C48.4029 16.7679 48.6274 15.7762 48.7946 15.0797C48.8292 15.0976 48.8639 15.1066 48.9015 15.1066C49.254 15.1066 49.3323 14.3311 49.3323 14.0597C49.3323 13.9345 49.3203 13.8301 49.2977 13.751C49.2811 13.6958 49.26 13.6571 49.2374 13.6272C49.376 13.4707 49.5643 13.32 49.7827 13.1456C49.8882 13.0621 49.9981 12.9741 50.1111 12.8801C50.2904 12.7295 50.6745 12.5834 50.8929 12.5103C50.9185 12.5058 50.9441 12.4998 50.9697 12.4969L51.0526 12.5207C50.8703 12.3045 50.7618 12.0286 50.7618 11.7289ZM48.4617 11.0876C48.9377 10.8818 49.4784 10.7521 50.0825 10.6939C49.9831 10.9012 49.8806 11.1055 49.7737 11.3158C49.4769 11.9033 49.1712 12.5118 48.9106 13.2902C48.6093 12.6236 48.424 11.8347 48.3125 11.1547C48.3623 11.1323 48.4105 11.1085 48.4617 11.0876ZM45.8858 14.1611C46.0907 13.4289 46.407 12.8026 46.8348 12.2821C47.0548 12.0137 47.3063 11.7781 47.588 11.5753C47.6317 11.9868 47.6859 12.4014 47.7522 12.7608C47.9088 13.5199 48.192 14.1596 48.5746 14.6115L48.5777 14.6145C48.5792 14.6234 48.5807 14.6339 48.5837 14.6443C48.5852 14.6518 48.5867 14.6562 48.5882 14.6637C48.4195 15.3407 48.1243 16.583 48.0309 17.3644C47.8953 17.9609 47.8004 18.6096 47.701 19.2956C47.6136 19.8936 47.5247 20.5125 47.4042 21.0956L47.3831 21.1955L47.4705 21.2506C47.8155 21.4669 48.3276 21.2149 48.9542 20.4916C49.1696 20.2515 49.4061 19.9741 49.6562 19.6803C49.9484 19.3373 50.2512 18.9824 50.5299 18.6767C50.685 18.5544 50.8839 18.4187 51.0556 18.4187C51.1309 18.4187 51.2002 18.4456 51.268 18.5022C51.3086 18.5365 51.3463 18.5708 51.3824 18.6051V18.8691H51.6114C51.7877 19.1122 51.9036 19.3806 52.0317 19.6773C52.1477 19.9473 52.2682 20.2261 52.4459 20.5095C52.9189 21.2626 53.3181 21.6443 53.6299 21.6443C54.0863 21.6443 54.1285 20.9598 54.142 20.7347C54.1631 20.3768 54.0848 19.8175 54.0155 19.3239C53.9929 19.1629 53.9703 19.0063 53.9538 18.8706H55.6198V21.2492C55.4059 21.4356 55.1317 21.619 54.7943 21.7979C54.4659 21.9679 54.0923 22.123 53.6736 22.2617C53.2623 22.3915 52.815 22.4973 52.3314 22.5794C51.8464 22.6614 51.3418 22.7017 50.8161 22.7017C49.9213 22.7017 49.144 22.551 48.4873 22.2498C47.8305 21.9486 47.2837 21.5295 46.8484 20.9941C46.4206 20.4573 46.1013 19.8145 45.8874 19.0674C45.6825 18.3188 45.5801 17.4986 45.5801 16.6038C45.5786 15.6986 45.681 14.8844 45.8858 14.1611Z" fill="black"/>
<path d="M98.4237 15.4869C98.725 15.4869 99.0066 15.4079 99.2507 15.2736C99.7447 14.9992 100.079 14.4892 100.079 13.9017C100.079 13.0263 99.338 12.3164 98.4252 12.3164C97.6509 12.3164 97.0017 12.828 96.8225 13.5169C96.7908 13.6407 96.7712 13.7689 96.7712 13.9017C96.7712 14.3625 96.9776 14.777 97.306 15.0664C97.422 15.1693 97.553 15.2543 97.6961 15.3229C97.913 15.4272 98.1601 15.4869 98.4237 15.4869Z" fill="#E40E20"/>
<path d="M52.0858 12.9995C52.2244 12.9995 52.357 12.9786 52.482 12.9413C52.6311 12.8966 52.7667 12.8265 52.8872 12.7385C53.2035 12.5058 53.4099 12.1405 53.4099 11.7289C53.4099 11.547 53.3692 11.3725 53.2969 11.2159C53.0921 10.7685 52.6266 10.4568 52.0858 10.4568C51.3538 10.4568 50.7618 11.0265 50.7618 11.7289C50.7618 12.0286 50.8702 12.3045 51.0525 12.5222C51.295 12.813 51.6671 12.9995 52.0858 12.9995Z" fill="#E40E20"/>
<path d="M17.5623 25.1265C17.9871 24.9714 18.3697 24.776 18.7132 24.5464C18.8005 24.5628 18.9 24.5479 18.9843 24.4987C19.0717 24.448 19.1304 24.3719 19.15 24.2839C19.156 24.2586 19.1575 24.2332 19.1621 24.2079C19.2434 24.1378 19.3232 24.0662 19.3985 23.9916C19.9002 23.495 20.2767 22.8985 20.5313 22.1991C20.7859 21.4922 20.9139 20.7034 20.9139 19.8325V8.08718H13.8296V9.78425C13.7814 9.92294 13.7332 10.0676 13.685 10.2152C13.5615 10.588 13.432 10.9743 13.2934 11.3128C13.0976 11.787 12.8716 12.2598 12.6532 12.7176C12.4529 13.1381 12.245 13.5721 12.0612 14.006C11.9 14.3878 11.6831 14.9396 11.4888 15.4466C11.4828 15.4526 11.4783 15.4571 11.4752 15.4586L11.4813 15.4645C11.4029 15.6703 11.3276 15.8672 11.2598 16.0446C11.058 16.1401 10.6965 16.3026 10.4766 16.3638C10.3591 16.3966 10.225 16.4338 10.1075 16.4219C9.88908 16.3995 9.68874 16.328 9.54564 16.2191C9.33475 16.061 9.19467 15.8045 9.0606 15.557L9.03198 15.5093C8.88285 15.2363 8.69607 14.6786 8.63732 14.4997C8.80603 14.3565 8.92051 14.191 8.99282 13.9822C9.12537 13.6004 9.18713 13.3141 9.21877 12.9264C9.2263 12.8443 9.2986 12.7265 9.36337 12.6207C9.47183 12.4417 9.5848 12.2568 9.51853 12.0748C9.47936 11.9675 9.38446 11.8869 9.23684 11.8362C9.01692 11.7602 8.56351 12.0584 8.41439 12.3746C8.39631 12.4119 8.36769 12.4924 8.33756 12.5759C8.33304 12.5908 8.32702 12.6072 8.31949 12.6251C8.18241 12.4432 8.0363 12.1091 7.94893 11.9063C7.91428 11.8258 7.88265 11.7527 7.85554 11.6976C7.83746 11.6588 7.81637 11.6066 7.79378 11.5499C7.68231 11.2696 7.54373 10.9206 7.26807 10.9758C7.18371 10.9922 7.11442 11.0429 7.07225 11.1175C6.98639 11.2725 7.01651 11.538 7.16263 11.9034C7.25903 12.1449 7.33134 12.3955 7.36598 12.5431C6.7032 11.705 6.38687 11.4217 6.16242 11.456C6.07656 11.4694 6.01028 11.529 5.98016 11.617C5.86116 11.96 6.18351 12.3478 6.46821 12.6893C6.59323 12.8399 6.73633 13.0114 6.75742 13.0949C6.76044 13.1068 6.76194 13.1158 6.76345 13.1247C6.72278 13.1128 6.65047 13.08 6.55407 12.995C6.12928 12.6221 5.76174 12.5222 5.56742 12.728C5.49964 12.8011 5.4906 12.8742 5.49512 12.9234C5.50868 13.071 5.64425 13.1709 5.86718 13.335C6.10669 13.5109 6.43507 13.754 6.75592 14.1537C7.01501 14.4594 7.35845 14.534 7.72298 14.613C7.78625 14.6264 7.85253 14.6413 7.9173 14.6562L7.92182 14.6726C7.92935 14.698 8.10559 15.3049 8.2502 15.6017C8.41137 15.9328 8.6072 16.3101 8.8934 16.6083C9.0847 16.8082 9.30161 16.9588 9.52154 17.0438C9.68573 17.1079 9.87402 17.1392 10.1105 17.1392C10.1316 17.1392 10.1542 17.1392 10.1753 17.1392C10.3319 17.1362 10.4976 17.1049 10.6679 17.0468C10.7432 17.0214 10.832 16.9826 10.9224 16.9379C10.7326 17.4837 10.1964 19.0689 10.0457 19.9965C10.0201 20.1516 9.99905 20.3097 9.98097 20.4677L8.98227 20.6124C9.14646 21.4982 9.38898 22.2558 9.70983 22.8806C9.80624 23.0626 9.91168 23.2326 10.0231 23.3951C10.0985 23.8813 10.228 24.3465 10.454 24.6716C10.5142 24.7581 10.5986 24.8133 10.698 24.8297C10.7191 24.8327 10.7417 24.8357 10.7628 24.8357C10.8712 24.8357 10.9706 24.7924 11.0294 24.7492C11.1017 24.6955 11.1649 24.6403 11.2207 24.5837C11.662 24.8774 12.1636 25.0996 12.7285 25.2473C13.4094 25.4262 14.1866 25.5157 15.0573 25.5157C16.0048 25.5172 16.8393 25.3875 17.5623 25.1265ZM17.2912 19.0883C17.2867 19.0704 17.2806 19.054 17.2761 19.0361C17.13 18.4799 17.0472 17.9013 16.9718 17.3376L17.2912 17.5568V19.0883V19.0883ZM11.4195 17.1616V17.2063C11.4165 17.181 11.415 17.1571 11.4195 17.1616ZM10.8531 24.5121C10.8366 24.524 10.7884 24.5449 10.7507 24.5389C10.7371 24.5359 10.7221 24.5315 10.704 24.5061C10.5956 24.3495 10.5127 24.1482 10.4479 23.9275C10.6061 24.099 10.7763 24.2541 10.9571 24.3958C10.9631 24.4002 10.9691 24.4047 10.9751 24.4092C10.939 24.4435 10.8983 24.4778 10.8531 24.5121ZM12.9424 21.3088C12.7948 20.9763 12.6803 20.5691 12.5975 20.089L10.2958 20.423C10.3109 20.2962 10.3274 20.1695 10.347 20.0442C10.5217 18.9616 11.2252 16.9946 11.2312 16.9752C11.2538 17.1198 11.3743 17.2048 11.4195 17.2481C11.421 17.2496 11.421 17.2481 11.421 17.2481C11.5973 17.2466 11.7328 17.087 11.8262 16.7709C11.891 16.5487 11.9302 16.2668 11.9302 16.0163C11.9302 15.7941 11.9 15.633 11.8413 15.5301C12.0974 15.3049 12.596 14.877 12.9168 14.6816C13.2181 14.4982 13.7784 14.2715 13.9547 14.2014C13.7573 13.9404 13.6398 13.6213 13.6398 13.2738C13.6398 12.3985 14.381 11.6886 15.2938 11.6886C15.4218 11.6886 15.5454 11.7035 15.6644 11.7304C15.6613 11.699 15.6357 11.453 15.4866 11.025C15.4776 10.9981 15.4625 10.9564 15.4444 10.9042H17.2912V16.6113C17.0457 16.3951 16.8287 16.1833 16.7956 16.152C16.7625 15.9641 16.7263 15.7747 16.6811 15.5868C16.6133 15.2945 16.3332 14.9113 16.1554 14.6876L16.1449 14.6294C16.047 14.6861 15.9445 14.7323 15.8346 14.7681C16.0048 14.9709 16.3271 15.3944 16.3874 15.6524C16.5139 16.1893 16.5877 16.7396 16.6585 17.2719C16.7399 17.8774 16.8242 18.5022 16.9839 19.1092C17.0773 19.4626 17.1782 19.8056 17.2837 20.1412C17.2535 20.9256 17.0683 21.5385 16.7233 21.9769C16.6314 22.0977 16.5275 22.2021 16.413 22.2916C15.9445 21.8412 15.4384 21.4505 14.8314 21.285C14.3463 21.1522 13.7965 21.2029 13.3627 21.4222C13.2663 21.4714 13.1744 21.528 13.087 21.5877C13.0373 21.5012 12.9876 21.4087 12.9424 21.3088ZM14.1987 22.5645C13.9276 22.4675 13.685 22.3169 13.4726 22.1126C13.3943 22.0321 13.3205 21.9396 13.2497 21.8412C13.3295 21.7845 13.4124 21.7323 13.4998 21.6891C13.8643 21.5057 14.3433 21.4624 14.753 21.5743C15.2742 21.7174 15.7291 22.0589 16.1539 22.4601C15.8557 22.6182 15.5017 22.6987 15.0874 22.6987C14.7651 22.6987 14.4698 22.6539 14.1987 22.5645Z" fill="black"/>
<path d="M72.8175 25.2726V18.7468H77.0805L81.1099 25.2726H85.1996L80.5059 18.0519C81.0557 17.9221 81.5648 17.7178 82.0333 17.4419C82.5017 17.1571 82.9039 16.8082 83.2413 16.3936C83.5863 15.979 83.8529 15.5078 84.0427 14.9784C84.24 14.4415 84.338 13.8524 84.338 13.2097C84.338 12.4208 84.2024 11.714 83.9312 11.0876C83.6691 10.4538 83.2654 9.91697 82.7232 9.47705C82.1809 9.02967 81.503 8.68816 80.6911 8.45254C79.8852 8.20797 78.9408 8.08718 77.8577 8.08718H69.1843V15.4392C69.1782 15.4705 69.1707 15.5003 69.1647 15.5331C69.127 15.384 69.0728 15.0902 69.0487 14.7934C69.005 14.2447 68.8499 13.9553 68.6013 13.9553C68.5757 13.9553 68.5501 13.9583 68.5245 13.9658C68.2458 14.0389 68.276 14.4311 68.3016 14.7442C68.3061 14.8084 68.3121 14.868 68.3121 14.9142C68.3121 14.9799 68.3166 15.0619 68.3211 15.1558C68.3317 15.3944 68.3513 15.7926 68.3016 16.0282C68.2835 16.0103 68.2654 15.9939 68.2503 15.979C68.1826 15.9134 68.1178 15.8508 68.0831 15.8224C67.8738 15.6539 67.571 15.5943 67.3752 15.5943C67.2275 15.5943 67.1221 15.6256 67.0603 15.6867C66.9459 15.8001 66.8931 15.9179 66.9067 16.0357C66.9278 16.2355 67.1206 16.3578 67.3074 16.4771C67.4234 16.5517 67.5454 16.6277 67.5906 16.7038C67.803 17.0572 67.9958 17.3003 68.3001 17.603C68.4115 17.7134 68.5516 17.7954 68.6872 17.8759C68.7986 17.9415 68.9041 18.0042 68.9854 18.0757C69.008 18.2726 69.0366 18.6857 68.9643 18.8721C68.9267 18.9705 68.8619 19.0495 68.7971 19.0779C68.6932 19.1226 68.5245 19.0913 68.3543 19.048C68.0696 18.9735 67.809 18.808 67.5665 18.6454C67.2441 18.4292 66.7124 17.9236 66.5527 17.7715C66.5166 17.5717 66.4789 17.3704 66.4322 17.172C66.3539 16.841 66.0948 16.2817 65.9607 16.0133C65.8824 16.0625 65.7995 16.1058 65.7137 16.143C65.8688 16.3981 66.0767 16.9707 66.14 17.2391C66.1686 17.3644 66.1942 17.4897 66.2198 17.6149L66.3222 18.2502L66.4021 18.7602C66.4111 18.8258 66.4202 18.8915 66.4292 18.9556C66.5151 19.5953 66.6039 20.2575 66.7741 20.9002C67.2275 22.6182 67.8165 24.1393 68.523 25.4173C68.7504 25.8304 68.8122 26.066 68.7565 26.318C68.755 26.3225 68.7474 26.3359 68.7263 26.3478C68.6992 26.3642 68.6676 26.3672 68.6525 26.3642C67.9656 26.1644 67.3857 25.556 66.7711 24.9117C66.4518 24.5762 66.1249 24.2377 65.7754 23.9454V21.5504H64.4454C64.0055 21.4013 63.5069 21.3178 63.2614 21.2984C63.171 21.2909 63.064 21.2984 62.9496 21.3073C62.8712 21.3133 62.7884 21.3193 62.707 21.3193C62.588 21.3193 62.4992 21.3058 62.4284 21.2745L62.4088 21.2671C62.4058 21.2656 62.0985 21.1791 61.7581 20.9852C61.5427 20.8614 61.4252 20.8018 61.3257 20.7511C61.1902 20.681 61.0908 20.6303 60.8 20.4424C60.672 20.3589 60.4295 20.0412 60.3406 19.907C60.2442 19.5939 60.1553 19.2837 60.666 18.796C60.8784 18.5932 61.032 18.5738 61.0877 18.5738L61.1314 18.5783C61.2308 18.5783 61.4161 18.538 61.5351 18.2726C61.5984 18.1309 61.6345 17.9445 61.6345 17.7491C61.6345 17.3897 61.5231 17.1392 61.3453 17.0706C61.6255 16.8246 62.1241 16.401 62.4495 16.2027C62.7568 16.0163 63.3924 15.7523 63.6289 15.6554C63.415 15.3914 63.287 15.0634 63.287 14.7069C63.287 13.8316 64.0522 13.1217 64.9952 13.1217C65.1292 13.1217 65.2603 13.1381 65.3853 13.165C65.3627 13.0337 65.2964 12.7071 65.1684 12.3373C65.0961 12.13 64.7255 11.0787 64.5116 10.6865C64.4695 10.6089 64.4288 10.5165 64.3881 10.427C64.2691 10.1601 64.1848 9.96768 64.01 9.9647C63.9076 9.96917 63.8368 10.0214 63.7796 10.1377C63.6048 10.4896 63.4436 10.9713 63.2734 11.4813C63.1424 11.8765 63.0053 12.2836 62.8592 12.643C62.6528 13.1456 62.4118 13.6467 62.1798 14.1313C61.9674 14.5757 61.7475 15.035 61.5517 15.4958C61.38 15.9015 61.151 16.486 60.9446 17.0244C60.9371 17.0318 60.9311 17.0363 60.9296 17.0378L60.9371 17.0453C60.8964 17.1526 60.913 17.1094 60.8753 17.2108C60.8648 17.266 60.8452 17.2794 60.8046 17.3152C60.672 17.4703 60.7307 17.3927 60.6042 17.5404C60.5289 17.6433 60.44 17.7462 60.318 17.8297C60.1056 17.9773 59.9294 18.1414 59.7953 18.3173C59.604 18.5693 59.482 18.808 59.4217 19.0466C59.3374 19.3821 59.3314 19.6982 59.4067 19.9622C59.5046 20.3067 59.6658 20.7242 60.0303 20.9688C59.9851 21.2626 59.9399 21.543 59.9023 21.7801C59.8074 22.3632 59.6191 22.9567 59.4202 23.586C59.3781 23.7187 59.3359 23.8529 59.2937 23.9857C59.2259 24.2034 59.1039 24.4793 58.9744 24.7701C58.5902 25.638 58.1549 26.6222 58.8011 26.9056C58.8644 26.9339 58.9246 26.9458 58.9819 26.9458C59.1973 26.9458 59.3781 26.7758 59.5663 26.5969C59.6718 26.4985 59.7787 26.3956 59.9068 26.3031C60.2337 26.0675 60.4596 25.8199 60.678 25.5813C60.791 25.4575 60.9085 25.3293 61.0395 25.2025C61.3935 24.8595 61.7882 24.4957 62.213 24.1736V25.2682H65.7739V24.3391C66.0421 24.5807 66.2981 24.8491 66.5512 25.1131C67.1944 25.7871 67.8015 26.4239 68.5652 26.6461C68.6631 26.6744 68.7791 26.658 68.877 26.6014C68.9674 26.5492 69.0276 26.4701 69.0472 26.3792C69.1315 26.0034 69.008 25.6783 68.7851 25.2726C68.0907 24.0155 67.5107 22.5182 67.0634 20.8227C66.9052 20.2217 66.8178 19.5953 66.7365 18.9869L67.6041 19.5819C67.9205 19.7862 68.2503 19.8936 68.5576 19.8936C68.7881 19.8936 69.002 19.834 69.1873 19.7221V25.2667H72.8175V25.2726ZM72.8175 10.8803H77.4751C78.5024 10.8803 79.2902 11.0832 79.8401 11.4903C80.3989 11.8974 80.6776 12.5192 80.6776 13.3559C80.6776 13.7376 80.6158 14.0881 80.4923 14.4042C80.3688 14.7219 80.1805 14.9977 79.9259 15.2334C79.6789 15.4615 79.3595 15.6405 78.9649 15.7702C78.5793 15.8925 78.1153 15.9537 77.573 15.9537H72.8175V10.8803ZM62.21 23.8097C61.7023 24.1706 61.2369 24.5971 60.8271 24.9953C60.6886 25.128 60.5696 25.2592 60.4536 25.3875C60.2367 25.6246 60.0318 25.8498 59.729 26.0675C59.5859 26.1719 59.4654 26.2852 59.3585 26.3866C59.131 26.6014 59.0286 26.6849 58.9216 26.6386C58.5496 26.4761 58.9533 25.5619 59.2485 24.8953C59.3811 24.5956 59.5061 24.3122 59.5784 24.0781C59.6206 23.9454 59.6612 23.8127 59.7034 23.6799C59.9068 23.0402 60.0981 22.4347 60.196 21.8308C60.2291 21.625 60.2668 21.3879 60.306 21.1373C61.2218 21.6503 61.8379 21.9411 62.0352 22.0306C62.0638 22.1693 62.0548 22.2603 62.0443 22.3557C62.0277 22.4974 62.0111 22.645 62.1181 22.8821C62.1512 22.9701 62.1813 23.0581 62.2115 23.1446V23.8097H62.21Z" fill="black"/>
<path d="M35.6971 14.7338C35.4214 13.8554 34.7315 12.8757 34.3745 12.479C34.6411 11.9928 34.4303 11.4411 34.3248 11.2248C34.1651 10.9176 34.0702 10.6581 33.9994 10.4687C33.903 10.2063 33.8488 10.0616 33.7298 10.0616C33.7132 10.0616 33.6967 10.0646 33.6771 10.0706C33.5174 10.1228 33.4918 10.3882 33.6078 10.761C33.65 10.8953 33.6515 11.016 33.6123 11.0682C33.5822 11.11 33.5265 11.0996 33.4602 11.0459C33.3879 10.9877 33.3111 10.8311 33.2297 10.6656C33.0821 10.3658 32.9149 10.0258 32.6724 10.0035C32.6196 9.9975 32.5925 10.0229 32.579 10.0437C32.4886 10.1914 32.7507 10.7267 33.0188 11.2323C33.0414 11.2755 33.0595 11.3098 33.07 11.3292C33.0625 11.368 33.0414 11.3859 33.0068 11.3859C32.9842 11.3859 32.9631 11.3784 32.9525 11.3739C32.9149 11.3575 32.8094 11.2785 32.6859 11.1726C32.5729 10.8624 32.3952 10.3882 32.2762 10.172C32.2431 10.1123 32.2129 10.0437 32.1828 9.97663C32.0909 9.76934 32.0171 9.6053 31.862 9.60232C31.8002 9.59337 31.7158 9.62618 31.6526 9.75443C31.517 10.0258 31.395 10.3942 31.2655 10.7834C31.2188 10.9251 31.1706 11.0682 31.1208 11.2099C31.1073 11.1696 31.0772 11.1458 31.0275 11.1458C30.8105 11.1458 30.2291 11.6185 29.9806 11.8213C29.9429 11.8526 29.9128 11.8765 29.8947 11.8899C29.8691 11.8899 29.851 11.8825 29.839 11.8691C29.8209 11.8467 29.8209 11.8109 29.8269 11.784C29.8405 11.7184 29.9896 11.4321 30.1568 11.1875C30.2487 11.0533 30.3978 10.8058 30.3571 10.6626C30.3451 10.6223 30.321 10.594 30.2818 10.5776C30.2668 10.5716 30.2517 10.5687 30.2366 10.5687C30.1161 10.5687 29.9881 10.7551 29.8841 10.9057C29.8555 10.9474 29.8269 10.9877 29.8043 11.016C29.7742 11.0548 29.7365 11.1055 29.6959 11.1622C29.5347 11.3829 29.2922 11.7125 29.1204 11.7676C29.1114 11.7319 29.1009 11.6424 29.0933 11.5797C29.0843 11.5111 29.0768 11.447 29.0692 11.4142C29.015 11.1682 28.7499 10.9191 28.6324 10.9191C28.6294 10.9191 28.6264 10.9191 28.6234 10.9191C28.5269 10.9295 28.4637 10.9609 28.429 11.0131C28.3688 11.107 28.4155 11.2442 28.4637 11.3889C28.5013 11.4992 28.539 11.6111 28.5269 11.699C28.4848 12.0018 28.4818 12.2329 28.5179 12.5491C28.536 12.7057 28.5872 12.8309 28.6911 12.9592C28.6505 13.0158 28.1263 13.7421 27.7994 14.4027V8.08718H24.1646V18.8333C24.1646 20.004 24.3454 21.0121 24.7069 21.8576C25.0759 22.7032 25.5851 23.3981 26.2343 23.9439C26.8911 24.4808 27.6713 24.8789 28.5751 25.1399C29.4789 25.3919 30.4716 25.5187 31.5562 25.5187C32.6889 25.5187 33.7283 25.3845 34.6728 25.116C35.6248 24.8402 36.4472 24.4211 37.1371 23.8604C37.827 23.2907 38.3648 22.5764 38.7519 21.713C39.139 20.8495 39.3303 19.831 39.3303 18.6514V8.08718H35.6956V14.7338H35.6971ZM30.2592 12.2106C30.3014 12.13 30.44 12.0227 30.5876 11.9093C30.7337 11.7975 30.8889 11.6752 30.9958 11.5499C30.9808 11.5902 30.9642 11.6319 30.9491 11.6707C30.8723 11.8586 30.7879 12.045 30.7036 12.2299C30.6599 12.2493 30.6162 12.2702 30.571 12.2956C30.4791 12.3448 30.3933 12.3731 30.327 12.3731C30.2969 12.3731 30.2577 12.3671 30.2396 12.3388C30.2231 12.312 30.2306 12.2672 30.2592 12.2106ZM28.295 14.7562C28.4802 14.2044 28.9442 13.4289 29.1129 13.156C29.134 13.1575 29.1566 13.159 29.1762 13.1605C29.3012 13.1694 29.4202 13.1784 29.5287 13.1784C29.7757 13.1784 29.9459 13.1292 30.098 13.0158C30.2186 12.9189 30.336 12.8399 30.4475 12.7728C30.4415 12.7847 30.4355 12.7981 30.4294 12.81C30.2668 13.1501 30.0996 13.5005 29.9504 13.8524C29.8194 14.1611 29.6461 14.604 29.4895 15.0141C29.488 15.0156 29.485 15.0186 29.4835 15.0201L29.4865 15.0231C29.4202 15.1961 29.3554 15.3646 29.2997 15.5122C29.1942 15.5003 29.1054 15.4928 29.0316 15.4869C28.771 15.466 28.6384 15.4556 28.3251 15.3109C28.2859 15.293 28.2603 15.2617 28.2453 15.214C28.2121 15.1081 28.2377 14.9441 28.295 14.7562ZM28.2166 20.3932C28.2197 20.5289 28.2257 20.678 28.2362 20.8316C28.176 20.7034 28.1202 20.5706 28.072 20.4305C27.8913 19.9025 27.8009 19.2762 27.8009 18.5529V15.6494C28.1172 15.9626 28.5104 16.0849 28.8101 16.0849H28.8327C28.8644 16.0849 28.9065 16.0894 28.9502 16.0953C28.9939 16.0998 29.0376 16.1043 29.0768 16.1058C28.9969 16.3309 28.4592 17.8625 28.3221 18.714C28.2347 19.2464 28.2016 19.7967 28.2166 20.3932ZM33.2824 22.4556C32.7899 22.6182 32.2476 22.7002 31.6571 22.7002C31.0742 22.7002 30.5439 22.6226 30.0679 22.469C29.8691 22.4019 29.6868 22.3154 29.5121 22.2185C29.5769 22.1186 29.6326 22.0157 29.6883 21.9098C29.7516 21.789 29.8179 21.6623 29.9052 21.531C29.9489 21.4654 29.9926 21.3998 30.0363 21.3327C30.3511 20.854 30.6765 20.3574 31.157 20.1158C31.4462 19.9711 31.8273 19.9354 32.1512 20.0248C32.7778 20.1963 33.2869 20.7302 33.7795 21.2462C33.9799 21.4565 34.1757 21.6608 34.3775 21.8427C34.0627 22.1052 33.6997 22.3124 33.2824 22.4556ZM34.599 21.6354C34.3971 21.4565 34.1998 21.2507 33.9979 21.0389C33.4783 20.4931 32.939 19.9294 32.231 19.7355C31.8318 19.6252 31.3784 19.6684 31.0199 19.8489C30.4671 20.1277 30.1191 20.6571 29.7832 21.1701C29.7395 21.2357 29.6974 21.3014 29.6537 21.367C29.5573 21.5116 29.485 21.6503 29.4202 21.7726C29.3645 21.8785 29.3148 21.9724 29.256 22.0604C29.1114 21.959 28.9713 21.8516 28.8463 21.7264C28.7589 21.6384 28.6776 21.5429 28.6008 21.443C28.533 21.0165 28.5209 20.5885 28.5164 20.3887C28.5013 19.8101 28.5345 19.2777 28.6188 18.7617C28.7469 17.9728 29.25 16.5174 29.3509 16.231C29.363 16.313 29.3856 16.3876 29.4172 16.4189C29.4548 16.4562 29.494 16.4756 29.5332 16.4756C29.7365 16.4756 29.8495 15.9417 29.8495 15.5734C29.8495 15.4436 29.8344 15.2393 29.7501 15.1827C29.9203 15.0306 30.3963 14.6145 30.687 14.437C30.9295 14.2894 31.3814 14.106 31.523 14.0493C31.3754 13.8405 31.2896 13.5885 31.2896 13.3186C31.2896 12.5983 31.8996 12.0152 32.6513 12.0152C33.192 12.0152 33.659 12.3194 33.8789 12.7564C33.9527 12.7429 34.0251 12.7295 34.0898 12.7265C34.1923 12.8682 35.0644 14.188 35.203 15.1842C35.2557 15.6554 34.9771 15.5823 34.7165 15.5823C34.5718 15.5823 34.3354 15.5808 34.135 15.5301C34.0612 15.5107 33.9241 15.5078 33.8383 15.4884C33.8066 15.3049 33.7946 15.3228 33.7524 15.1394C33.7132 14.9709 33.5521 14.6354 33.4195 14.3968C33.3246 14.4579 33.2222 14.5071 33.1122 14.5444C33.2463 14.7398 33.421 15.038 33.4602 15.2065C33.5626 15.6405 33.6214 16.0849 33.6801 16.5174C33.7464 17.008 33.8142 17.515 33.9437 18.0071C34.2435 19.142 34.6201 20.162 35.0644 21.0508C34.9273 21.2671 34.7722 21.4624 34.599 21.6354ZM35.6971 18.4307C35.6971 19.1703 35.5992 19.8086 35.4018 20.3455C35.3521 20.4782 35.2994 20.6064 35.2392 20.7287C34.843 19.9025 34.5041 18.966 34.2314 17.9311C34.1064 17.4569 34.0386 16.9588 33.9753 16.4771C33.9618 16.3712 33.9467 16.2638 33.9317 16.1565C34.1094 16.1893 34.4544 16.2445 34.7918 16.2445C35.2392 16.2445 35.5314 16.1505 35.6594 15.9656C35.673 15.9447 35.685 15.9238 35.6971 15.9029V18.4307Z" fill="black"/>
<path d="M32.6511 14.6205C32.8123 14.6205 32.966 14.5921 33.1091 14.5429C33.219 14.5056 33.3215 14.4564 33.4164 14.3953C33.7764 14.1611 34.0129 13.7645 34.0129 13.3171C34.0129 13.1158 33.9632 12.9249 33.8788 12.7549C33.6589 12.3164 33.1934 12.0137 32.6511 12.0137C31.8995 12.0137 31.2894 12.5968 31.2894 13.3171C31.2894 13.5885 31.3753 13.839 31.5229 14.0478C31.7684 14.3938 32.1812 14.6205 32.6511 14.6205Z" fill="#E40E20"/>
<path d="M15.2938 14.859C15.4836 14.859 15.6658 14.8262 15.8361 14.7696C15.9445 14.7338 16.0485 14.6861 16.1464 14.6309C16.6269 14.3535 16.9492 13.8509 16.9492 13.2738C16.9492 12.5207 16.3994 11.8914 15.6643 11.7303C15.5453 11.7035 15.4218 11.6886 15.2938 11.6886C14.3794 11.6886 13.6398 12.3984 13.6398 13.2738C13.6398 13.6213 13.7573 13.9404 13.9547 14.2014C14.2544 14.5981 14.7425 14.859 15.2938 14.859Z" fill="#E40E20"/>
<path d="M63.2825 14.7099C63.2825 15.0664 63.4105 15.3944 63.6244 15.6584C63.9362 16.0446 64.4318 16.2952 64.9907 16.2952C65.2482 16.2952 65.4923 16.24 65.7107 16.146C65.7965 16.1088 65.8794 16.0655 65.9577 16.0163C66.4051 15.73 66.6988 15.2528 66.6988 14.7114C66.6988 13.9613 66.1355 13.3335 65.3808 13.1695C65.2558 13.1426 65.1247 13.1262 64.9907 13.1262C64.0477 13.1262 63.2825 13.8346 63.2825 14.7099Z" fill="#E40E20"/>
<path d="M0 0V33.7654H37.9279V31.7522H2.03204V2.01173H108.968V31.7522H72.4846V33.7654H111V0H0Z" fill="#E40E20"/>
<path d="M47.0351 31.7254C46.7188 31.2467 46.3512 31.0409 45.7517 31.0409C44.6175 31.0409 43.8673 31.8999 43.8673 33.1943C43.8673 34.4738 44.5843 35.291 45.702 35.291C46.2684 35.291 46.6932 35.0763 47.0201 34.6304L47.011 35.1091C47.0035 35.7951 46.8529 36.2156 46.0605 36.2156C45.5439 36.2156 45.2848 36.0501 45.1929 35.6698H44.0179C44.1339 36.5616 44.7937 36.9985 46.0349 36.9985C47.4358 36.9985 48.1528 36.3871 48.1528 34.9689V31.1557H47.0351V31.7254ZM46.0349 34.4171C45.4188 34.4171 45.0347 33.9384 45.0347 33.1868C45.0347 32.4114 45.4023 31.9491 46.0274 31.9491C46.6525 31.9491 47.0276 32.4024 47.0276 33.163C47.0261 33.9369 46.6435 34.4171 46.0349 34.4171Z" fill="black"/>
<path d="M50.2618 31.9401V31.1557H49.1365V35.4147H50.3205V33.4671C50.3205 32.6902 50.6368 32.1131 51.4548 32.1131C51.5888 32.1131 51.7048 32.1205 51.9127 32.1623V31.0811C51.7967 31.0647 51.7455 31.0557 51.6536 31.0557C51.0119 31.0572 50.5284 31.3868 50.2618 31.9401Z" fill="black"/>
<path d="M54.3303 31.0334C52.9791 31.0334 52.0874 31.9326 52.0874 33.2867C52.0874 34.6482 52.9716 35.5475 54.3138 35.5475C55.6559 35.5475 56.5311 34.6557 56.5311 33.2867C56.5311 31.9326 55.6559 31.0334 54.3303 31.0334ZM54.3138 34.6646C53.6555 34.6646 53.2714 34.1606 53.2714 33.2867C53.2714 32.4367 53.663 31.9252 54.2972 31.9252C54.9554 31.9252 55.3471 32.4292 55.3471 33.2792C55.3471 34.1516 54.9645 34.6646 54.3138 34.6646Z" fill="black"/>
<path d="M60.1673 33.3509C60.1673 33.9951 59.976 34.5558 59.2334 34.5558C58.5586 34.5558 58.5074 34.1263 58.5074 33.591V31.1557H57.3159V34.019C57.3159 35.033 57.8913 35.5371 58.8162 35.5371C59.4323 35.5371 59.8917 35.2821 60.2171 34.8108V35.4133H61.3423V31.1542H60.1673V33.3509Z" fill="black"/>
<path d="M64.7029 31.0409C64.1531 31.0409 63.6861 31.2467 63.3683 31.6851V31.1572H62.2506V36.9254H63.4255V34.8869C63.7419 35.3238 64.2088 35.5222 64.7511 35.5222C65.8763 35.5222 66.6189 34.6468 66.6189 33.3106C66.6205 31.9401 65.8613 31.0409 64.7029 31.0409ZM64.4197 34.6065C63.769 34.6065 63.3864 34.1204 63.3864 33.2942C63.3864 32.468 63.7705 31.9819 64.4122 31.9819C65.0463 31.9819 65.438 32.477 65.438 33.3106C65.4365 34.1189 65.0524 34.6065 64.4197 34.6065Z" fill="black"/>
</g>
<defs>
<clipPath id="clip0">
<rect width="111" height="37" fill="white"/>
</clipPath>
</defs>
</svg>
