<svg width="75" height="35" viewBox="0 0 75 35" fill="none" xmlns="http://www.w3.org/2000/svg">
<mask id="path-1-inside-1" fill="white">
<path fill-rule="evenodd" clip-rule="evenodd" d="M74.8197 5C74.8197 2.23858 72.5811 0 69.8197 0H5C2.23858 0 0 2.23857 0 5V29.4262C0 32.1877 2.23858 34.4262 5.00001 34.4262H69.8197C72.5811 34.4262 74.8197 32.1877 74.8197 29.4262V28.6131C74.8197 26.5264 73.3893 24.7401 71.9905 23.1917C70.621 21.6757 69.7705 19.5573 69.7705 17.2131C69.7705 14.8688 70.621 12.7504 71.9905 11.2344C73.3893 9.68601 74.8197 7.89967 74.8197 5.81304V5Z"/>
</mask>
<path fill-rule="evenodd" clip-rule="evenodd" d="M74.8197 5C74.8197 2.23858 72.5811 0 69.8197 0H5C2.23858 0 0 2.23857 0 5V29.4262C0 32.1877 2.23858 34.4262 5.00001 34.4262H69.8197C72.5811 34.4262 74.8197 32.1877 74.8197 29.4262V28.6131C74.8197 26.5264 73.3893 24.7401 71.9905 23.1917C70.621 21.6757 69.7705 19.5573 69.7705 17.2131C69.7705 14.8688 70.621 12.7504 71.9905 11.2344C73.3893 9.68601 74.8197 7.89967 74.8197 5.81304V5Z" fill="#F8F8F8"/>
<path d="M71.9905 11.2344L71.2485 10.564L71.9905 11.2344ZM5 1H69.8197V-1H5V1ZM1 29.4262V5H-1V29.4262H1ZM69.8197 33.4262H5.00001V35.4262H69.8197V33.4262ZM73.8197 28.6131V29.4262H75.8197V28.6131H73.8197ZM72.7326 22.5214C71.5338 21.1943 70.7705 19.3166 70.7705 17.2131H68.7705C68.7705 19.7979 69.7083 22.1572 71.2485 23.8621L72.7326 22.5214ZM70.7705 17.2131C70.7705 15.1095 71.5338 13.2318 72.7326 11.9047L71.2485 10.564C69.7083 12.2689 68.7705 14.6282 68.7705 17.2131H70.7705ZM73.8197 5V5.81304H75.8197V5H73.8197ZM72.7326 11.9047C74.1044 10.3862 75.8197 8.33271 75.8197 5.81304H73.8197C73.8197 7.46662 72.6742 8.98579 71.2485 10.564L72.7326 11.9047ZM75.8197 28.6131C75.8197 26.0934 74.1044 24.0399 72.7326 22.5214L71.2485 23.8621C72.6742 25.4403 73.8197 26.9595 73.8197 28.6131H75.8197ZM69.8197 35.4262C73.1334 35.4262 75.8197 32.7399 75.8197 29.4262H73.8197C73.8197 31.6354 72.0288 33.4262 69.8197 33.4262V35.4262ZM-1 29.4262C-1 32.7399 1.6863 35.4262 5.00001 35.4262V33.4262C2.79086 33.4262 1 31.6354 1 29.4262H-1ZM69.8197 1C72.0288 1 73.8197 2.79086 73.8197 5H75.8197C75.8197 1.68629 73.1334 -1 69.8197 -1V1ZM5 -1C1.68629 -1 -1 1.68629 -1 5H1C1 2.79086 2.79086 1 5 1V-1Z" fill="black" mask="url(#path-1-inside-1)"/>
<line x1="53.2869" y1="2.18557e-08" x2="53.2869" y2="34.4262" stroke="black"/>
<path d="M27.44 26L24.7 22.3L21.94 26H19.18L23.34 20.58L19.36 15.32H22.14L24.76 18.82L27.38 15.32H30.08L26.08 20.54L30.26 26H27.44ZM36.3802 12V26H33.7802V14.18H30.8202V12H36.3802Z" fill="black"/>
</svg>
