<svg width="185" height="185" viewBox="0 0 185 185" fill="none" xmlns="http://www.w3.org/2000/svg">
<path d="M24.975 127.705H33.8689C37.7169 127.705 40.478 126.827 42.1939 125.143C43.9097 123.46 44.8625 120.375 44.8625 116.009C44.8625 111.481 43.9837 108.558 42.0875 106.833C40.1912 105.108 37.7215 104.469 33.8735 104.469H24.975V127.705ZM40.1172 116.009C39.9184 122.701 38.7575 123.779 33.3879 123.899H29.341V108.225H33.3879C36.1629 108.225 37.5134 108.465 38.6372 109.543C39.7611 110.621 40.1172 112.522 40.1172 116.009ZM55.8422 110.2C50.5975 110.2 47.9103 112.605 47.9103 119.135C47.9103 122.461 48.6319 124.782 50.0332 126.147C51.4346 127.511 53.5205 128.186 56.166 128.186C58.179 128.195 60.1804 127.883 62.0952 127.261L61.4153 123.978C59.8715 124.458 58.2638 124.701 56.647 124.699C55.0837 124.699 53.9228 124.375 53.28 123.816C52.6371 123.256 52.281 122.054 52.2393 120.292H63.3393C63.4596 116.166 63.0202 113.599 61.6605 112.156C60.3007 110.713 58.6542 110.237 55.8099 110.237L55.8422 110.2ZM56.0041 113.484C57.2374 113.484 58.0792 113.724 58.5294 114.205C58.9919 114.668 59.2509 115.648 59.2879 117.133H52.3365C52.6186 114.325 53.4604 113.484 56.0642 113.484H56.0041ZM72.8299 123.543C71.5071 118.81 70.1057 114.537 68.6257 110.722H64.2967C66.5173 116.274 68.4303 121.944 70.0271 127.705H75.1562C77.6768 121.536 79.7211 115.889 81.2844 110.722H77.0756C75.9149 115.071 74.5113 119.351 72.8715 123.543H72.8299ZM93.906 128.168C101.306 128.168 104.96 125.444 104.96 115.828C104.96 111.143 104.081 108.058 102.185 106.296C100.288 104.534 97.7771 103.85 93.8921 103.85C90.0071 103.85 87.5605 104.534 85.5671 106.296C83.6431 108.058 82.7921 111.185 82.7921 115.828C82.7921 120.597 83.6755 123.76 85.5671 125.606C87.4587 127.451 90.0117 128.131 93.8921 128.131L93.906 128.168ZM87.5327 115.912C87.5327 112.304 87.7732 110.422 88.8139 109.261C89.8545 108.1 91.2188 107.818 93.943 107.818C96.6671 107.818 97.9899 108.058 99.0305 109.261C100.071 110.463 100.353 112.304 100.353 115.912C100.353 122.96 99.0305 124.204 93.9846 124.204C88.9387 124.204 87.616 122.96 87.616 115.912H87.5327ZM116.208 128.168C119.052 128.168 121.138 127.488 122.419 126.207C123.7 124.926 124.343 122.479 124.343 119.117C124.343 115.754 123.7 113.465 122.419 112.179C121.138 110.894 119.052 110.218 116.208 110.218C113.363 110.218 111.361 110.898 110.08 112.179C108.798 113.46 108.156 115.787 108.156 119.117C108.156 122.447 108.798 124.843 110.08 126.207C111.361 127.571 113.405 128.168 116.249 128.168H116.208ZM116.208 113.548C119.334 113.627 119.977 114.27 120.097 119.195C120.097 121.508 119.815 123.002 119.293 123.723C118.77 124.445 117.729 124.843 116.208 124.843C114.686 124.843 113.687 124.482 113.164 123.723C112.642 122.965 112.401 121.48 112.401 119.195C112.401 116.832 112.683 115.31 113.164 114.631C113.645 113.951 114.7 113.567 116.235 113.567L116.208 113.548ZM136.239 128.168C138.685 128.168 140.526 127.488 141.789 126.165C143.051 124.843 143.671 122.465 143.671 119.195C143.671 115.828 143.028 113.465 141.747 112.184C140.466 110.903 138.422 110.223 135.499 110.223C132.955 110.16 130.424 110.596 128.048 111.504V134.139H132.173V127.201C133.442 127.845 134.844 128.182 136.266 128.186L136.239 128.168ZM135.512 113.807C137.034 113.807 138.033 114.168 138.597 114.885C139.162 115.602 139.439 117.049 139.439 119.334C139.439 121.415 139.157 122.821 138.597 123.58C138.038 124.338 137.034 124.704 135.549 124.704C133.667 124.704 132.224 124.019 132.224 123.062V114.325C133.294 113.96 134.419 113.785 135.549 113.807H135.512ZM159.562 111.162C157.717 110.536 155.78 110.223 153.832 110.237C149.147 110.237 146.543 111.758 146.543 115.884C146.543 119.209 148.305 120.412 152.273 120.731C155.118 121.013 155.918 121.531 155.918 122.775C155.918 124.496 154.993 124.856 152.593 124.856C150.875 124.874 149.167 124.605 147.537 124.061L146.659 127.345C148.621 127.994 150.679 128.307 152.745 128.27C155.113 128.27 156.908 127.807 158.156 126.984C159.405 126.161 160.039 124.671 160.039 122.581C160.039 119.256 158.355 117.891 154.11 117.452C151.335 117.17 150.585 116.772 150.585 115.602C150.585 113.96 151.385 113.641 153.67 113.641C155.344 113.65 157.005 113.92 158.596 114.441L159.521 111.203L159.562 111.162Z" fill="black"/>
<path d="M122.849 77.2374C120.708 77.2411 118.615 77.8792 116.836 79.0711C115.057 80.263 113.671 81.9553 112.853 83.9344C112.035 85.9134 111.822 88.0905 112.24 90.1907C112.658 92.2909 113.69 94.2201 115.204 95.7346C116.718 97.2492 118.646 98.2812 120.746 98.7005C122.846 99.1197 125.023 98.9073 127.003 98.0902C128.982 97.273 130.675 95.8876 131.868 94.1091C133.061 92.3305 133.699 90.2384 133.704 88.0969C133.702 85.2184 132.557 82.4583 130.522 80.4224C128.487 78.3865 125.728 77.2411 122.849 77.2374ZM122.849 94.8124C121.51 94.8133 120.2 94.417 119.086 93.6736C117.972 92.9301 117.103 91.8729 116.59 90.6358C116.077 89.3986 115.942 88.0371 116.203 86.7233C116.464 85.4096 117.108 84.2026 118.055 83.2552C119.002 82.3078 120.208 81.6625 121.522 81.4009C122.835 81.1392 124.197 81.2731 125.435 81.7854C126.672 82.2977 127.73 83.1656 128.474 84.2792C129.218 85.3928 129.616 86.7021 129.616 88.0414C129.611 89.8349 128.896 91.5536 127.629 92.8222C126.361 94.0909 124.643 94.8063 122.849 94.8124Z" fill="#503B7F"/>
<path d="M66.1976 77.2374C64.0563 77.242 61.9644 77.8808 60.1859 79.0733C58.4074 80.2658 57.0221 81.9584 56.2048 83.9376C55.3875 85.9167 55.1748 88.0936 55.5937 90.1935C56.0126 92.2934 57.0441 94.2221 58.5582 95.7362C60.0723 97.2503 62.0011 98.2819 64.101 98.7008C66.2009 99.1197 68.3778 98.907 70.3569 98.0897C72.3361 97.2724 74.0287 95.887 75.2212 94.1086C76.4137 92.3301 77.0525 90.2382 77.0571 88.0969C77.0558 85.2172 75.9113 82.4557 73.875 80.4195C71.8388 78.3832 69.0773 77.2387 66.1976 77.2374ZM66.1976 94.8124C64.8584 94.8124 63.5493 94.4153 62.4358 93.6713C61.3223 92.9273 60.4545 91.8698 59.942 90.6326C59.4295 89.3953 59.2954 88.0339 59.5567 86.7205C59.8179 85.407 60.4628 84.2005 61.4097 83.2536C62.3567 82.3067 63.5632 81.6618 64.8766 81.4005C66.1901 81.1393 67.5515 81.2734 68.7887 81.7858C70.026 82.2983 71.0834 83.1662 71.8275 84.2797C72.5715 85.3931 72.9686 86.7022 72.9686 88.0414C72.9625 89.8353 72.2472 91.554 70.9787 92.8225C69.7102 94.091 67.9915 94.8063 66.1976 94.8124Z" fill="#503B7F"/>
<path d="M71.6876 77.0663L71.4887 73.505H117.359L117.517 77.0663H71.6876Z" fill="#503B7F"/>
<path d="M113.715 70.9381L116.198 68.2556L120.763 79.6701L117.318 80.7524L113.715 70.9381Z" fill="#503B7F"/>
<path d="M75.295 70.9381L72.8114 68.2556L68.2835 79.6701L71.6875 80.7524L75.295 70.9381Z" fill="#503B7F"/>
<path d="M116.878 66.5999C113.553 70.0039 108.983 68.1586 107.864 64.3938C107.425 63.1913 107.744 61.9518 107.665 60.9482C108.118 60.9955 108.575 60.983 109.025 60.9112C110.018 60.7458 110.94 60.2892 111.674 59.5994C112.408 58.9096 112.92 58.0175 113.147 57.0362C113.373 56.0549 113.303 55.0285 112.946 54.087C112.588 53.1455 111.959 52.3312 111.139 51.7474C110.318 51.1636 109.343 50.8364 108.336 50.8074C107.329 50.7784 106.337 51.0488 105.484 51.5844C104.631 52.1199 103.956 52.8966 103.545 53.8159C103.134 54.7353 103.005 55.756 103.174 56.7487C103.346 57.7216 103.792 58.6251 104.46 59.3526C100.571 61.9564 92.6387 71.6504 97.0879 76.0581C100.492 79.4251 109.668 83.8697 103.216 91.8432C102.578 92.6433 105.26 93.3648 106.06 92.4814C107.927 90.4004 109.078 87.7762 109.344 84.9936C109.807 81.4647 106.861 77.9404 104.978 75.3366C103.776 73.6947 105.339 68.0846 106.944 69.3657C109.585 71.9696 113.511 72.6911 115.995 69.3657C116.716 69.0466 117.637 66.0033 116.878 66.5629V66.5999Z" fill="#503B7F"/>
<path d="M72.15 66.5999C75.4754 70.0039 80.0403 68.1586 81.1641 64.3938C81.6035 63.1913 81.2844 61.9518 81.363 60.9482C80.9101 60.9955 80.4529 60.983 80.0033 60.9112C78.8857 60.7261 77.8619 60.1733 77.094 59.3404C76.3262 58.5076 75.8583 57.4422 75.7645 56.3133C75.6707 55.1844 75.9564 54.0565 76.5762 53.1083C77.1961 52.1602 78.1146 51.446 79.1863 51.079C80.258 50.712 81.4215 50.7131 82.4925 51.0823C83.5635 51.4515 84.4806 52.1675 85.0985 53.1169C85.7164 54.0663 85.9998 55.1948 85.9037 56.3235C85.8077 57.4522 85.3376 58.5166 84.5681 59.3479C88.4531 61.9518 96.3896 71.6458 91.9404 76.0534C88.5364 79.4204 79.3604 83.8651 85.8123 91.8386C86.4505 92.6387 83.768 93.3602 82.9679 92.4768C81.1001 90.3961 79.9477 87.7721 79.6795 84.9889C79.2401 81.4601 82.1678 77.9358 84.0501 75.3319C85.248 73.6901 83.6894 68.0799 82.0845 69.3611C79.439 71.9649 75.517 72.6864 73.0334 69.3611C72.3119 69.0419 71.3869 65.9987 72.15 66.5583V66.5999Z" fill="#503B7F"/>
<path d="M108.304 91.6906H102.777C102.337 91.6906 101.977 92.1531 101.977 92.7728C101.977 93.3741 102.337 93.8551 102.777 93.8551H108.304C108.766 93.8551 109.104 93.3926 109.104 92.7728C109.104 92.1716 108.743 91.6906 108.304 91.6906Z" fill="#503B7F"/>
<path d="M86.3903 91.6906H80.8634C80.4009 91.6906 80.0587 92.1531 80.0587 92.7728C80.0587 93.3741 80.4194 93.8551 80.8634 93.8551H86.3903C86.8528 93.8551 87.1904 93.3926 87.1904 92.7728C87.1904 92.1716 86.8297 91.6906 86.3903 91.6906Z" fill="#503B7F"/>
<path d="M101.093 84.0408H87.9952C87.7357 84.0699 87.498 84.1995 87.3329 84.4018C87.1678 84.6041 87.0884 84.863 87.1118 85.123C87.0897 85.3823 87.1696 85.64 87.3346 85.8413C87.4996 86.0425 87.7366 86.1715 87.9952 86.2007H101.093C101.352 86.1715 101.589 86.0425 101.754 85.8413C101.919 85.64 101.999 85.3823 101.977 85.123C102 84.863 101.921 84.6041 101.755 84.4018C101.59 84.1995 101.353 84.0699 101.093 84.0408Z" fill="#503B7F"/>
<path d="M85.1 92.2501C86.062 88.7259 86.2193 88.1246 87.1443 84.6004C87.1942 84.4877 87.2661 84.3861 87.3558 84.3016C87.4455 84.2171 87.5512 84.1514 87.6667 84.1083C87.7821 84.0652 87.9051 84.0456 88.0282 84.0507C88.1514 84.0558 88.2722 84.0854 88.3838 84.1379C88.9434 84.2998 89.3458 84.7808 89.2255 85.1785L87.1813 92.8329C87.0748 93.0555 86.8861 93.2281 86.6549 93.3144C86.4237 93.4006 86.168 93.3938 85.9418 93.2954C85.3868 93.1335 84.989 92.6525 85.1 92.2501Z" fill="#503B7F"/>
<path d="M104.137 92.4537C103.175 88.9248 103.017 88.3282 102.097 84.7993C101.989 84.5764 101.8 84.4037 101.568 84.3174C101.336 84.2312 101.08 84.2382 100.853 84.3368C100.293 84.4987 99.8908 84.9797 100.011 85.382L102.055 93.0318C102.105 93.1445 102.177 93.2461 102.267 93.3306C102.357 93.4151 102.462 93.4808 102.578 93.5239C102.693 93.567 102.816 93.5866 102.939 93.5815C103.062 93.5764 103.183 93.5467 103.295 93.4943C103.859 93.3324 104.257 92.8514 104.137 92.4537Z" fill="#503B7F"/>
</svg>