<svg width="79" height="50" viewBox="0 0 79 50" fill="none" xmlns="http://www.w3.org/2000/svg">
<mask id="path-1-inside-1" fill="white">
<path fill-rule="evenodd" clip-rule="evenodd" d="M74.9677 4.96569C74.6443 2.22327 72.1589 0.26231 69.4165 0.585754L5.04298 8.17803C2.30056 8.50147 0.339595 10.9868 0.663038 13.7293L3.52406 37.9874C3.84751 40.7298 6.33288 42.6907 9.0753 42.3673L73.4488 34.775C76.1912 34.4516 78.1522 31.9662 77.8287 29.2238L77.7334 28.4158C77.489 26.3436 75.8593 24.7371 74.2888 23.3632C72.7512 22.018 71.6584 20.0138 71.3838 17.6857C71.1092 15.3576 71.7057 13.1541 72.8883 11.4882C74.096 9.78662 75.3073 7.84504 75.0629 5.77279L74.9677 4.96569Z"/>
</mask>
<path fill-rule="evenodd" clip-rule="evenodd" d="M74.9677 4.96569C74.6443 2.22327 72.1589 0.26231 69.4165 0.585754L5.04298 8.17803C2.30056 8.50147 0.339595 10.9868 0.663038 13.7293L3.52406 37.9874C3.84751 40.7298 6.33288 42.6907 9.0753 42.3673L73.4488 34.775C76.1912 34.4516 78.1522 31.9662 77.8287 29.2238L77.7334 28.4158C77.489 26.3436 75.8593 24.7371 74.2888 23.3632C72.7512 22.018 71.6584 20.0138 71.3838 17.6857C71.1092 15.3576 71.7057 13.1541 72.8883 11.4882C74.096 9.78662 75.3073 7.84504 75.0629 5.77279L74.9677 4.96569Z" fill="#F8F8F8"/>
<path d="M72.8883 11.4882L72.0728 10.9093L72.8883 11.4882ZM74.2888 23.3632L74.9472 22.6105L74.2888 23.3632ZM5.16011 9.17114L69.5336 1.57887L69.2993 -0.407363L4.92585 7.18491L5.16011 9.17114ZM4.51718 37.8702L1.65615 13.6121L-0.330078 13.8464L2.53095 38.1045L4.51718 37.8702ZM73.3317 33.7819L8.95817 41.3742L9.19243 43.3604L73.5659 35.7681L73.3317 33.7819ZM76.7403 28.5329L76.8356 29.3409L78.8218 29.1067L78.7265 28.2987L76.7403 28.5329ZM74.9472 22.6105C73.6012 21.433 72.6233 19.6576 72.3769 17.5686L70.3907 17.8028C70.6934 20.3699 71.9011 22.6031 73.6304 24.1158L74.9472 22.6105ZM72.3769 17.5686C72.1305 15.4795 72.6686 13.5253 73.7037 12.067L72.0728 10.9093C70.7429 12.7829 70.0879 15.2357 70.3907 17.8028L72.3769 17.5686ZM73.9746 5.08282L74.0698 5.88992L76.056 5.65566L75.9608 4.84856L73.9746 5.08282ZM73.7037 12.067C74.8882 10.3983 76.3511 8.15797 76.056 5.65566L74.0698 5.88992C74.2635 7.53211 73.3039 9.17498 72.0728 10.9093L73.7037 12.067ZM78.7265 28.2987C78.4314 25.7964 76.4874 23.9579 74.9472 22.6105L73.6304 24.1158C75.2312 25.5162 76.5466 26.8907 76.7403 28.5329L78.7265 28.2987ZM73.5659 35.7681C76.8568 35.38 79.21 32.3976 78.8218 29.1067L76.8356 29.3409C77.0944 31.5348 75.5256 33.5231 73.3317 33.7819L73.5659 35.7681ZM2.53095 38.1045C2.91908 41.3954 5.90153 43.7485 9.19243 43.3604L8.95817 41.3742C6.76423 41.6329 4.77593 40.0642 4.51718 37.8702L2.53095 38.1045ZM69.5336 1.57887C71.7275 1.32012 73.7158 2.88889 73.9746 5.08282L75.9608 4.84856C75.5727 1.55766 72.5902 -0.795495 69.2993 -0.407363L69.5336 1.57887ZM4.92585 7.18491C1.63495 7.57304 -0.71821 10.5555 -0.330078 13.8464L1.65615 13.6121C1.3974 11.4182 2.96617 9.4299 5.16011 9.17114L4.92585 7.18491Z" fill="black" mask="url(#path-1-inside-1)"/>
<line x1="52.9975" y1="2.52151" x2="57.0298" y2="36.7108" stroke="black"/>
<mask id="path-4-inside-2" fill="white">
<path fill-rule="evenodd" clip-rule="evenodd" d="M74.8197 20.2795C74.8197 17.5181 72.5811 15.2795 69.8197 15.2795H5C2.23858 15.2795 0 17.5181 0 20.2795V44.7058C0 47.4672 2.23858 49.7058 5.00001 49.7058H69.8197C72.5811 49.7058 74.8197 47.4672 74.8197 44.7058V43.8933C74.8197 41.8067 73.3893 40.0203 71.9905 38.472C70.621 36.956 69.7705 34.8375 69.7705 32.4933C69.7705 30.1491 70.621 28.0306 71.9905 26.5146C73.3893 24.9662 74.8197 23.1799 74.8197 21.0932V20.2795Z"/>
</mask>
<path fill-rule="evenodd" clip-rule="evenodd" d="M74.8197 20.2795C74.8197 17.5181 72.5811 15.2795 69.8197 15.2795H5C2.23858 15.2795 0 17.5181 0 20.2795V44.7058C0 47.4672 2.23858 49.7058 5.00001 49.7058H69.8197C72.5811 49.7058 74.8197 47.4672 74.8197 44.7058V43.8933C74.8197 41.8067 73.3893 40.0203 71.9905 38.472C70.621 36.956 69.7705 34.8375 69.7705 32.4933C69.7705 30.1491 70.621 28.0306 71.9905 26.5146C73.3893 24.9662 74.8197 23.1799 74.8197 21.0932V20.2795Z" fill="#F8F8F8"/>
<path d="M71.9905 26.5146L72.7326 27.1849L71.9905 26.5146ZM71.9905 38.472L72.7326 37.8016L71.9905 38.472ZM5 16.2795H69.8197V14.2795H5V16.2795ZM1 44.7058V20.2795H-1V44.7058H1ZM69.8197 48.7058H5.00001V50.7058H69.8197V48.7058ZM73.8197 43.8933V44.7058H75.8197V43.8933H73.8197ZM72.7326 37.8016C71.5337 36.4746 70.7705 34.5968 70.7705 32.4933H68.7705C68.7705 35.0782 69.7083 37.4374 71.2485 39.1423L72.7326 37.8016ZM70.7705 32.4933C70.7705 30.3897 71.5337 28.512 72.7326 27.1849L71.2485 25.8442C69.7083 27.5492 68.7705 29.9084 68.7705 32.4933H70.7705ZM73.8197 20.2795V21.0932H75.8197V20.2795H73.8197ZM72.7326 27.1849C74.1044 25.6664 75.8197 23.6129 75.8197 21.0932H73.8197C73.8197 22.7468 72.6742 24.266 71.2485 25.8442L72.7326 27.1849ZM75.8197 43.8933C75.8197 41.3736 74.1044 39.3201 72.7326 37.8016L71.2485 39.1423C72.6742 40.7206 73.8197 42.2397 73.8197 43.8933H75.8197ZM69.8197 50.7058C73.1334 50.7058 75.8197 48.0195 75.8197 44.7058H73.8197C73.8197 46.9149 72.0288 48.7058 69.8197 48.7058V50.7058ZM-1 44.7058C-1 48.0195 1.6863 50.7058 5.00001 50.7058V48.7058C2.79086 48.7058 1 46.9149 1 44.7058H-1ZM69.8197 16.2795C72.0288 16.2795 73.8197 18.0704 73.8197 20.2795H75.8197C75.8197 16.9658 73.1334 14.2795 69.8197 14.2795V16.2795ZM5 14.2795C1.68629 14.2795 -1 16.9658 -1 20.2795H1C1 18.0704 2.79086 16.2795 5 16.2795V14.2795Z" fill="black" mask="url(#path-4-inside-2)"/>
<line x1="53.2869" y1="15.2795" x2="53.2869" y2="49.7058" stroke="black"/>
<path d="M27.44 41L24.7 37.3L21.94 41H19.18L23.34 35.58L19.36 30.32H22.14L24.76 33.82L27.38 30.32H30.08L26.08 35.54L30.26 41H27.44ZM41.8072 27V28.74L36.3672 41H33.5872L38.8472 29.2H33.3472V31.58H30.9272V27H41.8072Z" fill="black"/>
</svg>
