<svg width="35" height="35" viewBox="0 0 35 35" fill="none" xmlns="http://www.w3.org/2000/svg">
<circle cx="17.3571" cy="17.3571" r="17.3571" fill="#F9F9F9"/>
<g clip-path="url(#clip0)">
<path d="M27 11.4178C26.3377 11.7118 25.626 11.9098 24.879 11.999C25.6418 11.5423 26.2275 10.8185 26.5028 9.95604C25.7895 10.379 24.999 10.6865 24.1575 10.8523C23.4847 10.1345 22.524 9.68604 21.462 9.68604C19.0777 9.68604 17.3258 11.9105 17.8643 14.2198C14.796 14.066 12.075 12.596 10.2533 10.3618C9.28575 12.0215 9.7515 14.1928 11.3955 15.2923C10.791 15.2728 10.221 15.107 9.72375 14.8303C9.68325 16.541 10.9095 18.1415 12.6855 18.4978C12.1658 18.6388 11.5965 18.6718 11.0175 18.5608C11.487 20.0278 12.8505 21.095 14.4675 21.125C12.915 22.3423 10.959 22.886 9 22.655C10.6342 23.7028 12.576 24.314 14.661 24.314C21.5175 24.314 25.3912 18.5233 25.1572 13.3295C25.8787 12.8083 26.505 12.158 27 11.4178Z" fill="#9A9A9A"/>
</g>
<defs>
<clipPath id="clip0">
<rect width="18" height="18" fill="white" transform="translate(9 8)"/>
</clipPath>
</defs>
</svg>
