<svg width="35" height="35" viewBox="0 0 35 35" fill="none" xmlns="http://www.w3.org/2000/svg">
<circle cx="17.3571" cy="17.3571" r="17.3571" fill="#F9F9F9"/>
<path d="M18.3652 23.6C18.8937 23.6 19.1098 23.2376 19.1037 22.7833C19.0768 21.0721 19.7233 20.1509 20.8906 21.3515C22.1819 22.6797 22.4492 23.6 24.0173 23.6H26.7943C27.4955 23.6 27.7715 23.3679 27.7715 23.0037C27.7715 22.2334 26.5383 20.8739 25.4935 19.8759C24.0303 18.4789 23.9618 18.4459 25.2218 16.7642C26.7848 14.6763 28.8294 12.001 27.0208 12.001H23.566C22.8961 12.001 22.8475 12.3893 22.6088 12.9678C21.7454 15.0628 20.1043 17.7764 19.4812 17.3614C18.8295 16.9284 19.128 15.2137 19.1775 12.6652C19.1905 11.9921 19.187 11.5306 18.1873 11.2914C17.6414 11.162 17.1103 11.1084 16.6174 11.1084C14.6448 11.1084 13.2841 11.9591 14.0573 12.1073C15.4207 12.3688 15.2896 15.4029 14.972 16.7133C14.4183 18.9949 12.3373 14.9066 11.4704 12.8705C11.2612 12.3813 11.197 12.001 10.4507 12.001H7.62591C7.19894 12.001 6.94293 12.1439 6.94293 12.4616C6.94293 12.999 9.51168 18.4602 11.9641 21.1827C14.3559 23.8384 16.7198 23.6 18.3652 23.6Z" fill="#9A9A9A"/>
</svg>
