<svg width="200" height="133" viewBox="0 0 200 133" fill="none" xmlns="http://www.w3.org/2000/svg">
<g clip-path="url(#clip0)">
<path d="M44.2391 24.7285C43.4524 24.7285 42.6721 24.8704 41.9357 25.1474V107.222C42.6721 107.499 43.4524 107.641 44.2391 107.641H53.0047V24.7285H44.2391Z" fill="#FFCC00"/>
<path d="M74.0173 24.7285H62.9484V107.64H74.0173V24.7285Z" fill="#FFCC00"/>
<path d="M95.0284 24.7285H83.9595V107.64H95.0284V24.7285Z" fill="#FFCC00"/>
<path d="M116.04 24.7285H104.972V107.64H116.04V24.7285Z" fill="#EF3C24"/>
<path d="M137.052 24.7285H125.983V107.64H137.052V24.7285Z" fill="#FFCC00"/>
<path d="M155.761 24.729H146.995V30.8682C147.17 30.703 147.389 30.5925 147.625 30.5504C147.862 30.5083 148.106 30.5365 148.326 30.6314C148.547 30.7263 148.735 30.8839 148.867 31.0846C148.999 31.2853 149.07 31.5203 149.07 31.7605C149.07 32.0008 148.999 32.2358 148.867 32.4365C148.735 32.6372 148.547 32.7947 148.326 32.8897C148.106 32.9846 147.862 33.0128 147.625 32.9707C147.389 32.9286 147.17 32.8181 146.995 32.6529V107.636H155.761C156.548 107.636 157.328 107.495 158.064 107.218V25.1427C157.328 24.8675 156.547 24.7273 155.761 24.729ZM153.182 32.989C152.939 32.9893 152.701 32.9174 152.498 32.7824C152.296 32.6475 152.138 32.4555 152.045 32.2309C151.952 32.0062 151.928 31.759 151.975 31.5204C152.022 31.2819 152.139 31.0627 152.311 30.8907C152.483 30.7188 152.702 30.6017 152.941 30.5543C153.18 30.5069 153.427 30.5313 153.652 30.6245C153.876 30.7177 154.068 30.8755 154.203 31.0778C154.338 31.2802 154.41 31.518 154.41 31.7612C154.41 32.0868 154.28 32.3991 154.05 32.6294C153.82 32.8597 153.507 32.989 153.182 32.989Z" fill="#FFCC00"/>
<path d="M155.761 23.5468H116.04V6.89023L104.972 3.47592V23.5468H95.028V0.412229L93.7975 0.0327148L83.9591 6.81276V23.5468H74.0168V13.6637L62.9479 21.2921V23.5468H44.2388C42.1884 23.5503 40.2231 24.3663 38.7733 25.8161C37.3235 27.2659 36.5075 29.2313 36.504 31.2816V101.089C36.5075 103.139 37.3235 105.104 38.7733 106.554C40.2231 108.004 42.1884 108.82 44.2388 108.823H46.9124L41.9354 115.841V126.387L53.0044 120.758V108.823H62.9479V115.701L74.0168 110.071V108.823H107.06L116.04 128.618V108.823H125.983V129.027L137.052 128.569V108.823H146.995V128.156L158.064 127.697V108.47C159.636 107.977 161.01 106.995 161.987 105.668C162.963 104.34 163.491 102.736 163.493 101.089V31.2816C163.489 29.2317 162.674 27.2668 161.225 25.817C159.775 24.3673 157.811 23.551 155.761 23.5468ZM162.311 101.089C162.31 102.826 161.62 104.493 160.391 105.721C159.162 106.95 157.496 107.641 155.758 107.641H44.2388C42.501 107.641 40.8347 106.95 39.606 105.721C38.3772 104.493 37.6866 102.826 37.6859 101.089V31.2816C37.6866 29.5439 38.3772 27.8775 39.606 26.6488C40.8347 25.42 42.501 24.7294 44.2388 24.7287H155.761C157.498 24.7294 159.165 25.42 160.394 26.6488C161.622 27.8775 162.313 29.5439 162.314 31.2816L162.311 101.089Z" fill="black"/>
<path d="M142.494 30.5317C142.25 30.5317 142.013 30.6038 141.811 30.7389C141.608 30.8739 141.451 31.0659 141.358 31.2905C141.265 31.5151 141.241 31.7623 141.288 32.0007C141.335 32.2391 141.452 32.4581 141.624 32.63C141.796 32.8019 142.015 32.919 142.254 32.9664C142.492 33.0139 142.739 32.9895 142.964 32.8965C143.188 32.8035 143.38 32.6459 143.516 32.4438C143.651 32.2416 143.723 32.004 143.723 31.7609C143.723 31.5994 143.691 31.4395 143.629 31.2903C143.568 31.1411 143.477 31.0055 143.363 30.8914C143.249 30.7772 143.113 30.6867 142.964 30.625C142.815 30.5632 142.655 30.5316 142.494 30.5317Z" fill="black"/>
<path d="M146.996 32.6527C147.201 32.8454 147.466 32.9615 147.747 32.9814C148.028 33.0012 148.307 32.9237 148.537 32.7618C148.768 32.5999 148.935 32.3635 149.011 32.0926C149.088 31.8216 149.068 31.5326 148.957 31.2742C148.845 31.0159 148.647 30.804 148.397 30.6743C148.147 30.5446 147.861 30.505 147.585 30.5621C147.309 30.6193 147.062 30.7698 146.884 30.9882C146.706 31.2066 146.609 31.4795 146.61 31.761C146.61 31.9282 146.644 32.0935 146.71 32.2468C146.777 32.4002 146.874 32.5383 146.996 32.6527Z" fill="black"/>
<path d="M153.182 30.5317C152.938 30.5315 152.701 30.6033 152.498 30.7383C152.296 30.8732 152.138 31.065 152.045 31.2896C151.952 31.5142 151.927 31.7614 151.975 31.9999C152.022 32.2384 152.139 32.4575 152.311 32.6296C152.483 32.8016 152.702 32.9188 152.94 32.9663C153.179 33.0139 153.426 32.9896 153.65 32.8966C153.875 32.8036 154.067 32.6461 154.202 32.4439C154.337 32.2418 154.41 32.0041 154.41 31.7609C154.41 31.5995 154.378 31.4397 154.316 31.2906C154.255 31.1415 154.164 31.006 154.05 30.8918C153.936 30.7777 153.801 30.6871 153.652 30.6253C153.503 30.5635 153.343 30.5317 153.182 30.5317Z" fill="black"/>
<path d="M10.9809 57.1016L-0.0880127 64.7286L10.9809 74.0353V57.1016Z" fill="black"/>
<path d="M31.9937 129.863L30.2393 132.337L31.9937 131.446V129.863Z" fill="black"/>
<path d="M31.9935 42.6226L20.9246 50.2496V82.3954L31.9935 91.702V42.6226Z" fill="black"/>
<path d="M125.983 18.8848L134.357 12.5368L125.983 9.95508V18.8848Z" fill="black"/>
<path d="M168.007 127.284L179.075 126.826V83.4131L174.299 73.6876L179.075 66.4269V39.5273L168.007 40.0145V127.284Z" fill="black"/>
<path d="M189.019 126.414L199.971 125.959L189.019 103.659V126.414Z" fill="black"/>
<path d="M189.019 39.0884V51.3129L197.3 38.7246L189.019 39.0884Z" fill="black"/>
</g>
<defs>
<clipPath id="clip0">
<rect width="200" height="132.37" fill="white"/>
</clipPath>
</defs>
</svg>
