<svg width="200" height="133" viewBox="0 0 200 133" fill="none" xmlns="http://www.w3.org/2000/svg">
<g clip-path="url(#clip0)">
<path d="M154.752 103.679L154.692 103.153H143.832L143.307 103.679H154.752Z" fill="black"/>
<path d="M59.304 83.4719V82.4214L58.7787 82.9467V83.4719H58.2535L57.7282 83.9972H58.7787V103.153H39.6231V102.102L39.0979 102.628V103.153H38.5726L38.0473 103.678H39.0979V106.567L39.6231 106.927V103.678H58.7787V109.551L59.304 109.025V103.678H61.4839L61.5194 103.153H59.304V83.9972H77.0322C76.9009 83.8252 76.759 83.6492 76.6251 83.4719H59.304Z" fill="black"/>
<path d="M185.816 64.3163L185.584 63.791H183.194L182.669 64.3163H185.816Z" fill="black"/>
<path d="M58.7788 44.6371V52.1696L59.3041 51.6443V44.6371H66.3113L66.8366 44.1118H59.3041V30.9903L58.7788 30.5977V44.1118H44.9915L44.4662 44.6371H58.7788Z" fill="black"/>
<path d="M202.964 103.153H197.066V102.546L196.541 103.072V103.153H196.46L195.934 103.678H196.541V106.016L197.066 106.201V103.678H203.196L202.964 103.153Z" fill="black"/>
<path d="M194.274 83.4721H177.387V69.5981L176.861 70.1234V83.4721H163.513L162.987 83.9974H176.861V99.0374L177.387 99.2239V83.9974H194.505L194.274 83.4721Z" fill="black"/>
<path d="M157.181 44.1116H150.246L149.72 44.6369H157.181V63.7925H139.382C139.382 63.9672 139.382 64.1418 139.375 64.3178H157.181V68.5292L157.706 68.0039V64.3178H161.392L161.917 63.7925H157.706V44.6369H170.679L170.093 44.1116H157.706V36.6514L157.181 37.1766V44.1116Z" fill="black"/>
<path d="M157.181 92.0606L157.706 92.2458V89.2793L157.181 89.8046V92.0606Z" fill="black"/>
<path d="M137.499 115.439H138.025V108.96L137.499 109.485V115.439Z" fill="black"/>
<path d="M138.025 73.1226C137.863 73.6776 137.688 74.2278 137.5 74.7732V83.4719H133.005C132.873 83.6478 132.75 83.8238 132.621 83.9971H137.5V88.2086L138.025 87.6833V83.9971H141.712L142.238 83.4719H138.025V73.1226Z" fill="black"/>
<path d="M118.345 103.678H122.031L122.557 103.153H118.345V95.207C118.171 95.2806 117.996 95.3515 117.82 95.4211V103.16H98.6644V100.707L98.0485 103.678H98.1391V115.439H98.6644V103.678H117.82V107.89L118.345 107.365V103.678Z" fill="black"/>
<path d="M117.82 24.4254H117.295L116.769 24.9507H117.82V31.648L118.345 31.862V24.9507H137.5V30.8233L138.025 30.298V24.9507H143.372L143.898 24.4254H138.025V15.3289L137.5 14.8574V24.4254H118.345V23.3748L117.82 23.9001V24.4254Z" fill="black"/>
<path d="M78.985 86.176C78.8046 86.0009 78.6296 85.821 78.4597 85.6362V89.87L78.985 89.3447V86.176Z" fill="black"/>
<path d="M39.623 64.3168H46.6315L47.1568 63.7915H39.623V49.479L39.0977 50.0043V63.7915H25.3104L24.7852 64.3168H39.0977V71.8506L39.623 71.3253V64.3168Z" fill="black"/>
<path d="M19.9436 83.9973H26.9508L27.4761 83.472H19.9436V79.623L19.4183 81.4484V83.472H18.8353L18.6843 83.9973H19.4183V91.5311L19.9436 91.0058V83.9973Z" fill="black"/>
<path d="M39.0979 50.004L39.6232 49.4787L44.4663 44.6369L44.9916 44.1116L58.6225 30.4806L38.4387 15.3828L24.1747 64.9284L24.7854 64.3165L25.3107 63.7912L39.0979 50.004Z" fill="#FFCC00"/>
<path d="M132.621 83.9971C132.752 83.8237 132.884 83.6478 133.005 83.4718C134.912 80.8027 136.426 77.8732 137.5 74.7732C137.689 74.2278 137.864 73.6775 138.025 73.1225C138.856 70.2587 139.31 67.2987 139.375 64.3175C139.375 64.1415 139.375 63.9669 139.381 63.7922C139.381 63.7055 139.381 63.6189 139.381 63.5296C139.383 60.9405 139.093 58.3596 138.516 55.8355L149.718 44.634L150.243 44.1087L157.178 37.1737L157.703 36.6484L159.631 34.7206L145.915 22.4094L143.897 24.4252L143.372 24.9504L138.025 30.2978L137.5 30.8231L129.201 39.133C126.08 36.0404 122.395 33.5744 118.345 31.8684L117.82 31.6543C115.892 30.8806 113.896 30.285 111.859 29.8749L116.773 24.9504L117.299 24.4252L117.824 23.8999L118.349 23.3746L131.899 9.83028L123.238 2.05615L106.831 29.2393C106.239 29.2087 105.644 29.1934 105.045 29.1934C99.4797 29.1896 93.9969 30.5402 89.07 33.1287C84.1431 35.7172 79.9201 39.4658 76.7655 44.0509L71.1188 39.8277L66.8417 44.1113L66.3164 44.6366L59.3039 51.6438L58.7786 52.1691L47.1568 63.7922L46.6316 64.3175L39.623 71.3247L39.0977 71.85L27.4759 83.4718L26.9507 83.9971L19.9434 91.0043L19.4182 91.5296L15.3407 95.6005L12.2376 106.387L3.66241 123.537L31.8843 101.624L36.7694 104.966L38.0577 103.678L38.583 103.153L39.1082 102.627L39.6335 102.102L57.7425 83.9931L58.2678 83.4679L58.7931 82.9426L59.3184 82.4173L71.0137 70.722C70.8447 69.9052 70.7047 69.0796 70.5935 68.2453C69.778 62.1008 70.6263 56.0864 72.9835 51.305C76.5291 44.1297 83.0951 40.3858 91.4681 40.76H91.5311C104.481 42.9518 115.132 58.437 113.435 72.6445C113.279 73.8878 113.027 75.1171 112.681 76.3214C111.09 81.6202 106.903 85.3681 102.005 85.8684C98.0524 86.2729 94.4766 84.4659 92.2875 81.0096C91.8147 81.6793 91.2028 82.412 90.3597 82.957C87.6506 84.7101 84.0393 84.3372 80.6972 81.959C78.0354 80.0654 75.8633 77.1448 74.579 73.7357C73.124 69.8723 72.8981 65.6149 73.9224 61.4258C75.1778 56.3044 78.9546 52.4816 83.321 51.9248C86.7143 51.4915 89.8121 53.0831 91.9881 56.3241C92.1339 55.5624 92.2901 54.806 92.4543 54.0627L92.558 53.5952L93.0321 53.6556C95.2488 53.9353 97.5863 54.1389 99.9776 54.261L100.525 54.2886L100.474 54.8336C99.9211 60.7495 99.623 67.0056 99.6125 72.9255C99.6125 73.766 99.6125 74.6077 99.6243 75.4206C99.7018 76.4856 99.8016 77.8054 100.754 78.4698C101.761 79.1724 102.657 79.2236 103.492 78.6261C106.052 76.7876 107.349 69.3208 105.253 62.064C103.983 57.6661 101.697 53.8749 98.6421 51.1002C95.7859 48.5066 92.4438 46.9321 88.9743 46.546C86.2518 46.2252 83.4957 46.7284 81.0623 47.9905C78.4648 49.3549 76.3348 51.5296 74.7235 54.4567C72.5015 58.4974 71.6965 63.3063 72.3952 68.3621C73.0518 73.1264 75.0216 77.7056 77.9539 81.2564C82.9113 87.2696 89.7202 89.4442 96.6368 87.2249L97.0308 87.0936L97.2435 87.456C98.1785 89.049 98.3715 89.3431 99.6204 91.2512L100.005 91.8382L99.3354 92.0457C97.5985 92.5769 95.7926 92.8482 93.9763 92.8507C88.7865 92.8507 84.143 90.6182 80.6 87.6583L80.6276 87.6859L78.9717 89.3418L78.4464 89.8671L76.9533 91.3694L84.4385 91.0043C89.1574 94.5404 94.7065 96.8034 100.552 97.5756C106.398 98.3479 112.345 97.6035 117.82 95.414C117.996 95.3444 118.171 95.2735 118.345 95.2C124.019 92.8083 128.949 88.9399 132.621 83.9971ZM131.159 54.4199L131.518 55.9301C131.594 56.2512 131.54 56.5894 131.368 56.8709C131.196 57.1524 130.919 57.3543 130.599 57.4324C130.504 57.4548 130.407 57.4662 130.31 57.4665C130.028 57.468 129.753 57.374 129.531 57.1997C129.309 57.0254 129.153 56.7811 129.087 56.5066L128.729 54.9964C128.691 54.837 128.685 54.6717 128.711 54.5099C128.737 54.3481 128.795 54.193 128.88 54.0535C128.966 53.914 129.079 53.7928 129.212 53.6968C129.345 53.6009 129.495 53.532 129.655 53.4941C129.814 53.4563 129.979 53.4502 130.141 53.4762C130.303 53.5023 130.458 53.5599 130.597 53.6459C130.737 53.7318 130.858 53.8445 130.954 53.9773C131.05 54.1101 131.119 54.2605 131.157 54.4199H131.159ZM110.017 35.6898C109.86 35.6448 109.712 35.5692 109.584 35.4674C109.456 35.3655 109.349 35.2394 109.27 35.0963C109.19 34.9531 109.14 34.7957 109.121 34.633C109.102 34.4703 109.116 34.3055 109.161 34.1481C109.206 33.9906 109.281 33.8436 109.383 33.7154C109.485 33.5871 109.611 33.4802 109.754 33.4007C109.897 33.3212 110.055 33.2706 110.218 33.252C110.38 33.2333 110.545 33.2469 110.702 33.2919C119.377 35.7699 124.373 40.8611 127.036 44.6957C127.581 45.479 128.083 46.2909 128.541 47.1277C129.117 48.1814 129.618 49.2745 130.041 50.3989C130.102 50.5531 130.132 50.7181 130.129 50.8841C130.126 51.0501 130.09 51.2139 130.023 51.3657C129.955 51.5175 129.859 51.6544 129.738 51.7684C129.617 51.8823 129.475 51.971 129.319 52.0292C129.164 52.0874 128.998 52.114 128.832 52.1074C128.666 52.1008 128.503 52.0611 128.353 51.9907C128.203 51.9204 128.068 51.8207 127.956 51.6975C127.845 51.5743 127.759 51.4302 127.704 51.2735C127.323 50.2599 126.87 49.2748 126.349 48.3254C125.934 47.5667 125.479 46.8307 124.986 46.1205C122.554 42.6182 117.983 37.9669 110.017 35.6898Z" fill="#FFCC00"/>
<path d="M52.5503 115.779L60.3192 121.1L61.2581 107.071L59.3041 109.025L58.7788 109.551L52.5503 115.779Z" fill="#FFCC00"/>
<path d="M176.861 70.1236L177.387 69.5984L182.668 64.3167L183.194 63.7914L184.852 62.1328L181.359 54.2221L176.156 49.5537L161.917 63.7914L161.392 64.3167L157.706 68.0041L157.181 68.5294L142.238 83.4723L141.712 83.9976L138.025 87.6837L137.5 88.209L122.557 103.153L122.032 103.678L118.345 107.365L117.82 107.89L110.271 115.439H131.546L137.5 109.485L138.025 108.96L143.307 103.678L143.832 103.153L153.568 93.4171L153.252 90.6673L155.515 91.4697L157.181 89.8045L157.706 89.2793L162.988 83.9976L163.513 83.4723L176.861 70.1236Z" fill="#FFCC00"/>
<path d="M196.541 103.072L197.066 102.546L200.972 98.6408L195.911 87.1792L182.17 100.919L194.368 105.245L195.934 103.678L196.46 103.153L196.541 103.072Z" fill="#FFCC00"/>
<path d="M87.1962 61.0639C85.6098 60.0566 83.7083 59.9673 82.2362 60.8314C80.1049 62.0777 78.8692 65.8478 79.3748 69.5997C80.0813 74.8525 83.384 76.314 84.8036 76.7041C86.2612 76.9247 87.4562 76.6804 88.3557 75.9779C89.8777 74.796 90.3886 72.4322 90.5488 70.6686C90.9572 66.1696 89.7346 62.6686 87.1962 61.0639Z" fill="#FFCC00"/>
<path d="M124.986 46.1195C125.48 46.8301 125.935 47.5665 126.349 48.3256C126.87 49.2755 127.322 50.2611 127.703 51.2751C127.758 51.4318 127.844 51.5759 127.955 51.6991C128.067 51.8222 128.201 51.9219 128.352 51.9923C128.502 52.0627 128.665 52.1023 128.831 52.1089C128.997 52.1155 129.162 52.089 129.318 52.0307C129.473 51.9725 129.616 51.8839 129.737 51.7699C129.857 51.656 129.954 51.5191 130.021 51.3673C130.089 51.2154 130.125 51.0517 130.128 50.8857C130.131 50.7197 130.101 50.5547 130.039 50.4005C129.617 49.2761 129.116 48.183 128.54 47.1293C128.082 46.2925 127.579 45.4806 127.035 44.6973C124.372 40.8627 119.376 35.7675 110.701 33.2935C110.544 33.2485 110.379 33.2351 110.216 33.2538C110.054 33.2726 109.896 33.3232 109.753 33.4027C109.61 33.4823 109.484 33.5893 109.382 33.7175C109.281 33.8458 109.205 33.9929 109.16 34.1503C109.115 34.3078 109.102 34.4725 109.121 34.6352C109.139 34.7978 109.19 34.9552 109.269 35.0983C109.349 35.2414 109.456 35.3674 109.584 35.4692C109.713 35.5709 109.86 35.6464 110.017 35.6914C117.983 37.9671 122.554 42.6185 124.986 46.1195Z" fill="white"/>
<path d="M129.657 53.4944C129.498 53.5323 129.348 53.6011 129.215 53.6971C129.082 53.7931 128.969 53.9143 128.883 54.0538C128.797 54.1933 128.74 54.3484 128.714 54.5102C128.688 54.672 128.694 54.8373 128.732 54.9967L129.088 56.5069C129.153 56.7799 129.308 57.023 129.528 57.1971C129.748 57.3713 130.02 57.4663 130.301 57.4669C130.398 57.4665 130.495 57.4551 130.59 57.4327C130.91 57.3546 131.187 57.1527 131.359 56.8712C131.532 56.5897 131.585 56.2515 131.509 55.9304L131.151 54.4202C131.074 54.1 130.875 53.8229 130.595 53.6495C130.315 53.476 129.978 53.4203 129.657 53.4944Z" fill="white"/>
<path d="M98.3652 91.2347C97.5221 89.9451 97.2411 89.5013 96.5622 88.3456C89.3541 90.4953 82.2996 88.167 77.1505 81.9215C76.2567 80.8333 75.4555 79.6724 74.7552 78.4507C75.7139 80.3835 76.896 82.1972 78.2772 83.8545C82.5268 88.9129 89.9844 93.4212 98.3652 91.2347Z" fill="black"/>
<path d="M80.5805 47.0613C83.1989 45.7002 86.1655 45.1559 89.0966 45.4986C96.9245 46.3693 103.665 52.7554 106.269 61.7691C107.292 65.3148 107.611 69.148 107.165 72.5689C106.734 75.8768 105.621 78.3955 104.11 79.4763C102.921 80.3286 101.518 80.2747 100.159 79.3279C98.7998 78.3811 98.6659 76.6306 98.5831 75.4776V75.4461C98.5726 74.6175 98.5687 73.7652 98.57 72.9143C98.5805 67.1441 98.8628 61.0574 99.3855 55.2714C97.329 55.1559 95.3146 54.9799 93.3868 54.7462C93.1662 55.7718 92.9626 56.8184 92.7788 57.8637L92.5162 59.3555L91.7926 58.0239C89.8228 54.3785 86.7893 52.5321 83.4525 52.9576C79.5129 53.4605 76.0986 56.9602 74.9416 61.6667C73.9659 65.6496 74.18 69.6917 75.5601 73.3542C76.7709 76.5702 78.8103 79.3187 81.3041 81.0915C84.2811 83.211 87.4525 83.5748 89.7873 82.0646C90.7525 81.4395 91.4026 80.4481 91.8766 79.7245L92.3599 78.9878L92.7788 79.7626C94.6987 83.3148 98.1038 85.2032 101.894 84.8158C106.359 84.3588 110.202 80.9024 111.67 76.0173C111.999 74.8728 112.238 73.7045 112.386 72.5229C114.021 58.8407 103.811 43.9307 91.375 41.8217C87.2174 41.6404 83.5628 42.494 80.5122 44.3575C77.7217 46.0646 75.5011 48.5597 73.9121 51.7836C72.6265 54.389 71.811 57.3818 71.4853 60.5676C71.8962 58.2512 72.6812 56.0172 73.8097 53.953C75.5194 50.8407 77.7978 48.5229 80.5805 47.0613ZM91.5956 70.7567C91.333 73.626 90.4623 75.6588 89.002 76.7974C88.1261 77.4816 87.0546 77.8256 85.807 77.8256C85.4073 77.8243 85.0082 77.7923 84.6133 77.7298L84.5582 77.7179C81.2121 76.8171 78.8852 73.8322 78.3336 69.7324C77.7663 65.5301 79.1846 61.3962 81.7046 59.9175C83.5181 58.8538 85.8385 58.9497 87.7597 60.1684C90.6422 62.0003 92.0408 65.8584 91.5956 70.7567Z" fill="black"/>
<path d="M80.6132 87.6613C84.1589 90.6186 88.7997 92.8537 93.9895 92.8537C95.8054 92.8533 97.6114 92.5843 99.3486 92.0553L100.018 91.8478L99.6336 91.2608C98.3847 89.3527 98.1891 89.0586 97.2567 87.4657L97.0453 87.0967L96.6513 87.228C89.7347 89.4473 82.9258 87.2726 77.9684 81.2595C75.0426 77.7138 73.0676 73.1295 72.4097 68.3652C71.7111 63.3094 72.516 58.5004 74.738 54.4597C76.3466 51.5326 78.4793 49.358 81.0768 47.9936C83.5102 46.7314 86.2663 46.2282 88.9888 46.549C92.4583 46.9351 95.8004 48.5096 98.6566 51.1032C101.711 53.878 103.997 57.6692 105.267 62.0671C107.368 69.3238 106.067 76.7959 103.506 78.6292C102.671 79.2267 101.775 79.1754 100.768 78.4729C99.8161 77.8084 99.7176 76.4886 99.6388 75.4236C99.6296 74.6055 99.6257 73.7637 99.627 72.9286C99.6375 67.0087 99.9356 60.7526 100.488 54.8366L100.54 54.2916L99.9921 54.2641C97.6008 54.1419 95.2646 53.9384 93.0466 53.6587L92.5725 53.5983L92.4688 54.0658C92.3046 54.809 92.1484 55.5655 92.0026 56.3271C89.824 53.0861 86.7262 51.4945 83.3355 51.9279C78.9691 52.4847 75.1937 56.3035 73.9369 61.4289C72.9113 65.618 73.1372 69.8754 74.5935 73.7388C75.8778 77.1531 78.0499 80.0684 80.7117 81.9621C84.0538 84.3403 87.6717 84.7198 90.3742 82.9601C91.2173 82.4151 91.8292 81.6823 92.302 81.0126C94.4885 84.4729 98.0643 86.2798 102.02 85.8714C106.915 85.3711 111.104 81.6232 112.696 76.3245C113.042 75.1202 113.294 73.8908 113.45 72.6475C115.132 58.4374 104.481 42.9522 91.5167 40.7775H91.4537C83.0781 40.4033 76.5082 44.1472 72.9691 51.3225C70.6119 56.1026 69.7636 62.117 70.5791 68.2628C70.6894 69.0971 70.8295 69.9226 70.9993 70.7395C71.9829 75.4972 73.9317 79.9161 76.6277 83.4775C76.759 83.6548 76.8969 83.8307 77.0348 84.0028C77.1726 84.1748 77.325 84.3639 77.4721 84.5399C77.7846 84.9111 78.1138 85.2783 78.4596 85.6416C78.6303 85.8228 78.8054 86.0028 78.9849 86.1814C79.497 86.6874 80.0398 87.1807 80.6132 87.6613ZM73.9159 51.7808C75.5049 48.5582 77.7242 46.0592 80.516 44.3547C83.5666 42.4913 87.2212 41.6377 91.3788 41.8189C103.82 43.9279 114.03 58.8379 112.39 72.5202C112.242 73.7017 112.003 74.87 111.674 76.0146C110.206 80.9049 106.368 84.3613 101.898 84.813C98.1077 85.207 94.7025 83.312 92.7826 79.7598L92.3637 78.985L91.8805 79.7217C91.4064 80.4453 90.7564 81.4368 89.7912 82.0619C87.4563 83.572 84.2849 83.2083 81.3079 81.0888C78.8128 79.316 76.7747 76.5674 75.564 73.3514C74.1838 69.6863 73.9698 65.6442 74.9455 61.6639C76.0984 56.9574 79.5193 53.4578 83.4563 52.9548C86.7931 52.5293 89.8319 54.3757 91.7964 58.0211L92.5161 59.3567L92.7787 57.8649C92.9625 56.8143 93.1727 55.7729 93.3867 54.7473C95.3145 54.9798 97.3263 55.1557 99.3854 55.2726C98.8601 61.0586 98.5804 67.1452 98.5699 72.9154C98.5699 73.7664 98.5699 74.6226 98.583 75.4473V75.4788C98.6658 76.6318 98.7931 78.3678 100.159 79.3291C101.525 80.2904 102.917 80.3297 104.11 79.4775C105.62 78.3967 106.737 75.878 107.165 72.5701C107.611 69.1492 107.296 65.3146 106.269 61.7703C103.665 52.7565 96.9245 46.3704 89.0965 45.4998C86.1654 45.157 83.1988 45.7014 80.5804 47.0625C77.7977 48.5241 75.5193 50.8419 73.8095 53.9515C72.6811 56.0157 71.8961 58.2498 71.4852 60.5661C71.8082 57.379 72.6264 54.3862 73.912 51.7808H73.9159ZM78.281 83.8583C76.8997 82.201 75.7176 80.3873 74.759 78.4545C75.4593 79.6762 76.2605 80.8371 77.1543 81.9253C82.3033 88.1708 89.3578 90.4992 96.566 88.3494C97.2449 89.5011 97.5259 89.945 98.369 91.2385C89.9842 93.421 82.5266 88.9128 78.277 83.8583H78.281Z" fill="white"/>
<path d="M87.7596 60.1693C85.8383 58.9506 83.5179 58.8561 81.7044 59.9185C79.1857 61.3971 77.7661 65.5284 78.3334 69.7307C78.885 73.8305 81.212 76.8219 84.558 77.7162L84.6131 77.728C85.008 77.7906 85.4071 77.8226 85.8068 77.8239C87.0544 77.8239 88.1259 77.4799 89.0018 76.7957C90.4621 75.6558 91.3341 73.623 91.5954 70.755C92.0406 65.8581 90.642 61.9999 87.7596 60.1693ZM90.5488 70.6617C90.3886 72.428 89.8778 74.7825 88.3558 75.971C87.4562 76.6736 86.2546 76.9178 84.8036 76.6972C83.384 76.3032 80.076 74.8443 79.3748 69.5928C78.8692 65.8476 80.0997 62.0774 82.2362 60.8246C83.7083 59.9605 85.6099 60.0498 87.1962 61.057C89.7346 62.6683 90.9572 66.1693 90.5488 70.6617Z" fill="white"/>
</g>
<defs>
<clipPath id="clip0">
<rect width="200" height="132.37" fill="white"/>
</clipPath>
</defs>
</svg>
