<svg width="30" height="30" viewBox="0 0 30 30" fill="none" xmlns="http://www.w3.org/2000/svg">
<circle cx="15" cy="15" r="15" fill="#F9F9F9"/>
<g clip-path="url(#clip0)">
<path d="M23.3333 9.86718C22.761 10.1213 22.1459 10.2924 21.5004 10.3695C22.1595 9.97477 22.6657 9.34931 22.9036 8.60394C22.2872 8.96949 21.6041 9.23524 20.8768 9.37848C20.2955 8.7582 19.4652 8.37061 18.5474 8.37061C16.4869 8.37061 14.9729 10.293 15.4382 12.2887C12.7867 12.1558 10.4352 10.8854 8.86083 8.95459C8.02472 10.3889 8.42722 12.2653 9.84796 13.2155C9.32555 13.1987 8.83296 13.0554 8.40323 12.8163C8.36823 14.2947 9.42796 15.6778 10.9628 15.9857C10.5136 16.1075 10.0217 16.1361 9.52129 16.0401C9.92703 17.3079 11.1054 18.2302 12.5028 18.2562C11.1611 19.3081 9.47073 19.778 7.77777 19.5784C9.19009 20.4838 10.8681 21.0121 12.67 21.0121C18.5954 21.0121 21.943 16.0077 21.7408 11.5193C22.3643 11.0688 22.9055 10.5069 23.3333 9.86718Z" fill="#9A9A9A"/>
</g>
<defs>
<clipPath id="clip0">
<rect width="15.5556" height="15.5556" fill="white" transform="translate(7.77777 6.91357)"/>
</clipPath>
</defs>
</svg>
